<?xml version="1.0" encoding="UTF-8"?>
<svg width="30px" height="30px" viewBox="0 0 30 30" version="1.1" xmlns="http://www.w3.org/2000/svg" xmlns:xlink="http://www.w3.org/1999/xlink">
    <!-- Generator: Sketch 46.2 (44496) - http://www.bohemiancoding.com/sketch -->
    <title>Accounts Copy</title>
    <desc>Created with Sketch.</desc>
    <defs></defs>
    <g id="Nav-Design" stroke="none" stroke-width="1" fill="none" fill-rule="evenodd">
        <g id="Nav_Product_resting_NEW_USE-ME!" transform="translate(-337.000000, -471.000000)">
            <g id="Group-15" transform="translate(298.000000, 56.000000)">
                <g id="Group-13">
                    <g id="Group-10" transform="translate(39.000000, 415.000000)">
                        <g id="Accounts-Copy">
                            <g id="Group-7" fill="#FDE9E4">
                                <circle id="Oval" cx="15" cy="15" r="15"></circle>
                            </g>
                            <g id="Group" transform="translate(5.400000, 5.400000)">
                                <path d="M13.8821818,16.7348364 L5.27127273,16.7348364 C4.98036364,16.7348364 4.736,16.4962909 4.736,16.2018909 C4.736,15.9063273 4.98036364,15.6677818 5.27127273,15.6677818 L13.8821818,15.6677818 C14.1789091,15.6677818 14.4174545,15.9063273 14.4174545,16.2018909 C14.4174545,16.4962909 14.1789091,16.7348364 13.8821818,16.7348364" id="Fill-961" fill="#D23E1A"></path>
                                <path d="M16.1221818,14.5018182 C15.8254545,14.5018182 15.5869091,14.2632727 15.5869091,13.9677091 L15.5869091,5.35505455 C15.5869091,5.06065455 15.8254545,4.82094545 16.1221818,4.82094545 C16.4130909,4.82094545 16.6516364,5.06065455 16.6516364,5.35505455 L16.6516364,13.9677091 C16.6516364,14.2632727 16.4130909,14.5018182 16.1221818,14.5018182" id="Fill-962" fill="#D23E1A"></path>
                                <path d="M13.8821818,3.65498182 L5.27127273,3.65498182 C4.98036364,3.65498182 4.736,3.41643636 4.736,3.12087273 C4.736,2.82530909 4.98036364,2.58676364 5.27127273,2.58676364 L13.8821818,2.58676364 C14.1789091,2.58676364 14.4174545,2.82530909 14.4174545,3.12087273 C14.4174545,3.41643636 14.1789091,3.65498182 13.8821818,3.65498182" id="Fill-963" fill="#D23E1A"></path>
                                <path d="M3.03709091,14.5006545 C2.74036364,14.5006545 2.50181818,14.2621091 2.50181818,13.9665455 L2.50181818,5.35505455 C2.50181818,5.05949091 2.74036364,4.82094545 3.03709091,4.82094545 C3.33381818,4.82094545 3.57236364,5.05949091 3.57236364,5.35505455 L3.57236364,13.9665455 C3.57236364,14.2621091 3.33381818,14.5006545 3.03709091,14.5006545" id="Fill-964" fill="#D23E1A"></path>
                                <path d="M1.33818182,4.82094545 L4.736,4.82094545 L4.736,1.41963636 L1.33818182,1.41963636 L1.33818182,4.82094545 Z M5.27127273,5.88916364 L0.802909091,5.88916364 C0.506181818,5.88916364 0.267636364,5.65061818 0.267636364,5.35505455 L0.267636364,0.885527273 C0.267636364,0.590545455 0.506181818,0.351418182 0.802909091,0.351418182 L5.27127273,0.351418182 C5.568,0.351418182 5.80654545,0.590545455 5.80654545,0.885527273 L5.80654545,5.35505455 C5.80654545,5.65061818 5.568,5.88916364 5.27127273,5.88916364 L5.27127273,5.88916364 Z" id="Fill-960" fill="#EF6C4B"></path>
                                <path d="M14.4174545,4.82094545 L17.8210909,4.82094545 L17.8210909,1.41963636 L14.4174545,1.41963636 L14.4174545,4.82094545 Z M18.3505455,5.88916364 L13.8821818,5.88916364 C13.5912727,5.88916364 13.3527273,5.65061818 13.3527273,5.35505455 L13.3527273,0.885527273 C13.3527273,0.590545455 13.5912727,0.351418182 13.8821818,0.351418182 L18.3505455,0.351418182 C18.6472727,0.351418182 18.8858182,0.590545455 18.8858182,0.885527273 L18.8858182,5.35505455 C18.8858182,5.65061818 18.6472727,5.88916364 18.3505455,5.88916364 L18.3505455,5.88916364 Z" id="Fill-966" fill="#EF6C4B"></path>
                                <path d="M1.33818182,17.9031273 L4.736,17.9031273 L4.736,14.5018182 L1.33818182,14.5018182 L1.33818182,17.9031273 Z M5.27127273,18.9696 L0.802909091,18.9696 C0.506181818,18.9696 0.267636364,18.7310545 0.267636364,18.4366545 L0.267636364,13.9677091 C0.267636364,13.6721455 0.506181818,13.4336 0.802909091,13.4336 L5.27127273,13.4336 C5.568,13.4336 5.80654545,13.6721455 5.80654545,13.9677091 L5.80654545,18.4366545 C5.80654545,18.7310545 5.568,18.9696 5.27127273,18.9696 L5.27127273,18.9696 Z" id="Fill-965" fill="#EF6C4B"></path>
                                <path d="M14.4174545,17.9031273 L17.8210909,17.9031273 L17.8210909,14.5018182 L14.4174545,14.5018182 L14.4174545,17.9031273 Z M18.3505455,18.9696 L13.8821818,18.9696 C13.5912727,18.9696 13.3527273,18.7310545 13.3527273,18.4366545 L13.3527273,13.9677091 C13.3527273,13.6721455 13.5912727,13.4336 13.8821818,13.4336 L18.3505455,13.4336 C18.6472727,13.4336 18.8858182,13.6721455 18.8858182,13.9677091 L18.8858182,18.4366545 C18.8858182,18.7310545 18.6472727,18.9696 18.3505455,18.9696 L18.3505455,18.9696 Z" id="Fill-967" fill="#EF6C4B"></path>
                            </g>
                        </g>
                    </g>
                </g>
            </g>
        </g>
    </g>
</svg>