<?xml version="1.0" encoding="UTF-8"?>
<svg width="130px" height="47px" viewBox="0 0 130 47" version="1.1" xmlns="http://www.w3.org/2000/svg" xmlns:xlink="http://www.w3.org/1999/xlink">
    <!-- Generator: Sketch 46.2 (44496) - http://www.bohemiancoding.com/sketch -->
    <title>Capital One Copy</title>
    <desc>Created with Sketch.</desc>
    <defs></defs>
    <g id="All-Pages-Together_spacing-innacurate-to-accomodate-visuals" stroke="none" stroke-width="1" fill="none" fill-rule="evenodd">
        <g id="Landing-Page_Wireframe" transform="translate(-347.000000, -648.000000)" fill-rule="nonzero" fill="#AEB5BD">
            <g id="Hero-#2" transform="translate(0.000000, 72.000000)">
                <g id="Logo-bar_grayed-out" transform="translate(135.000000, 570.000000)">
                    <g id="Capital-One-Copy" transform="translate(206.000000, 0.000000)">
                        <g id="Capital_One_logo" transform="translate(6.588235, 6.588235)">
                            <path d="M123.106951,4.27689839 C114.500992,-5.21500319 59.129106,3.32306838 35.5820799,8.46673245 L35.0333169,8.58553765 C34.9201712,8.60589409 34.8454934,8.71452369 34.863597,8.82653906 C34.8839535,8.9408177 34.9914527,9.01549548 35.1057314,8.99626153 L35.6499679,8.88990305 C55.1587762,5.4162886 95.7287701,0.600753066 104.459194,9.2564995 C107.122675,11.8973498 106.486787,15.300813 103.399006,19.3141374 C105.064529,20.3845067 106.25031,22.0658727 106.784365,24.1715371 C118.840179,16.1505452 126.941505,8.50633331 123.106951,4.27689839 M87.2744242,33.2843981 C87.2689819,33.2889247 87.2631209,33.2925354 87.2574169,33.2968788 C81.7980736,37.1608503 75.3317224,41.2205653 68.3743127,45.4816809 L68.0993647,45.64122 C68.0065859,45.7080194 67.9828254,45.8358307 68.0507578,45.9308754 C68.115205,46.0247871 68.2442382,46.0474173 68.3381499,45.9806597 L68.5701034,45.8584609 C74.4707183,42.7785996 81.2470944,39.1239515 88.066465,35.3731284 C88.1037581,35.3539232 88.1399653,35.3323946 88.1762171,35.3132051 C87.8005701,34.6988174 87.4939414,34.0244593 87.2744347,33.2844792" id="path4637"></path>
                            <path d="M87.9352034,26.404709 C87.7371961,32.1039242 92.2031088,37.9321269 98.6886956,37.9321269 C103.026752,37.9321269 105.865611,35.0412206 106.025148,30.613778 C106.232207,24.6034086 102.061608,19.0852287 95.2716558,19.0852287 C90.9324678,19.0852287 88.0936092,21.9704776 87.9352034,26.404709 M90.7570899,26.2259368 C90.867974,22.8858369 92.9804288,20.1510736 95.73669,20.1510736 C101.077229,20.1510736 103.351484,26.707943 103.193078,31.0901269 C103.079931,34.4381471 100.912034,37.167253 98.1602991,37.167253 C93.5653988,37.167253 90.5998156,30.6375388 90.7570899,26.2259368" id="path4649" transform="translate(96.980695, 28.508678) scale(-1, 1) rotate(-180.000000) translate(-96.980695, -28.508678) "></path>
                            <path d="M32.1317749,31.5612711 C32.108014,31.0374004 32.0186279,30.579155 31.8783256,29.7780741 L30.9233648,24.4239574 C30.8418989,23.94874 31.0184083,23.5753548 31.4596816,23.3196426 L31.4302634,23.1103206 L25.968657,23.1182409 L25.9188724,24.4805309 C25.1234488,23.9996561 24.1639622,23.5957213 23.2949931,23.3581125 C22.4294184,23.1363444 21.7290384,23.0379065 20.6779027,23.0379065 C18.9128092,23.0379065 17.9024064,23.2212047 17.2054208,23.8321985 C16.4971205,24.4635589 16.154285,24.8810714 16.1870977,25.748909 C16.2142529,26.2490188 16.4733596,26.8894309 16.8478762,27.3386245 C17.2257873,27.7934755 17.7406062,28.0910521 18.3018154,28.3535532 C18.8652875,28.6228431 19.528329,28.8163245 20.493473,28.969073 C21.4597485,29.1263473 22.8050665,29.2824902 24.606367,29.4329757 C25.5534075,29.5110472 26.1304573,29.7305524 26.4020101,29.838042 C26.7776582,29.9851332 26.9258808,30.1469334 26.9813228,30.4524303 C27.0820237,31.0034563 26.9055143,31.3168735 26.1757161,31.4628332 C24.206958,31.849796 20.5194968,31.2127783 18.618627,30.7364293 L19.6516592,33.5232403 C22.1589971,33.8898366 24.5090606,34.1240509 26.9813228,34.1240509 C30.9131816,34.1240509 32.1713764,33.0016326 32.1317749,31.5612711 M26.4936592,28.0548451 C26.2617078,27.9677219 25.9618682,27.8805987 25.590746,27.8036587 C25.2207553,27.7199299 24.5441361,27.5988626 23.56202,27.4438512 C22.8854009,27.3386245 22.4169723,27.1960593 22.1488138,27.0048408 C21.8931016,26.8147538 21.7426161,26.5895913 21.6984887,26.3135126 C21.6464411,26.0193303 21.7426161,25.785116 21.9971968,25.6006864 C22.2563035,25.4196511 22.690788,25.3268706 23.3040449,25.3268706 C23.7634217,25.3268706 24.2148783,25.4004162 24.6516258,25.539587 C25.0928992,25.6844152 25.4651528,25.881291 25.7525462,26.124557 C25.9618682,26.3055923 26.1123537,26.5375436 26.2255008,26.8147538 C26.2899946,26.9969205 26.3839066,27.4076442 26.4936592,28.0548451" id="path4653" transform="translate(24.158812, 28.580979) scale(-1, 1) rotate(-180.000000) translate(-24.158812, -28.580979) "></path>
                            <path d="M50.1496449,32.4583006 C50.3057878,33.3374529 51.6941016,34.0514106 53.2442157,34.0514106 C54.7977242,34.0514106 55.9314573,33.3374529 55.7821032,32.4583006 C55.6180401,31.5780168 54.2331206,30.8663221 52.6773492,30.8663221 C51.1193148,30.8663221 49.9923705,31.5780168 50.1496449,32.4583006 L50.1496449,32.4583006 Z M47.9636446,19.2823308 L49.8599885,29.980381 L55.0896435,29.980381 L53.194431,19.2823308 L47.9636446,19.2823308 Z" id="path4657" transform="translate(51.879481, 26.666871) scale(-1, 1) rotate(-180.000000) translate(-51.879481, -26.666871) "></path>
                            <path d="M79.2993707,31.5807324 C79.2778728,31.0557302 79.1850922,30.5929589 79.0413955,29.7997984 L78.0932235,24.4388928 C78.0117577,23.9659383 78.1871356,23.5948161 78.626146,23.3311836 L78.5933333,23.1456225 L73.1339899,23.1354392 L73.0921255,24.4988607 C72.2933076,24.015723 71.3281636,23.6140511 70.4659833,23.3798368 C69.5970142,23.1512798 68.8966342,23.0573678 67.8387096,23.0573678 C66.0758792,23.0573678 65.0733966,23.2338771 64.3730166,23.8493969 C63.6613219,24.4830202 63.3184864,24.8982697 63.3569564,25.7638444 C63.3761914,26.2662171 63.637561,26.9122866 64.0143406,27.3535599 C64.3922516,27.8140683 64.908202,28.1059876 65.4716741,28.3707516 C66.0351462,28.6355156 66.7015821,28.8312599 67.65428,28.9919287 C68.6262129,29.1424142 69.9749253,29.3053459 71.7762257,29.4558314 C72.7142145,29.5339029 73.2912643,29.7477507 73.5605541,29.8507145 C73.9418596,29.9989371 74.0923451,30.1630003 74.1477871,30.4707602 C74.2450936,31.0104714 74.0719786,31.3329404 73.3467063,31.4800315 C71.3688965,31.8703887 67.6916185,31.2288451 65.7896172,30.7570221 L66.8181236,33.5427016 C69.3345132,33.9104294 71.6732619,34.1446437 74.1489186,34.1446437 C78.0785144,34.1446437 79.3310519,33.0188309 79.2993707,31.5807324 M73.6623865,28.068649 C73.4281721,27.9894461 73.1238067,27.9023229 72.7549474,27.8174627 C72.3883511,27.7303395 71.7117319,27.6217183 70.722827,27.4599181 C70.0507338,27.3535599 69.5732534,27.2121261 69.3152782,27.0197762 C69.0640918,26.8364781 68.9147377,26.6079211 68.8615586,26.3318424 C68.8072481,26.0365287 68.9147377,25.7977885 69.1602668,25.6201477 C69.4250308,25.437981 69.8617783,25.3497263 70.4761665,25.3497263 C70.932149,25.3497263 71.3779482,25.4176145 71.8180901,25.5556539 C72.2638894,25.7050079 72.6338801,25.8950949 72.9235365,26.1406239 C73.1238067,26.3227906 73.2799495,26.5592679 73.3885707,26.8364781 C73.4564589,27.0152503 73.5469765,27.4271055 73.6623865,28.068649" id="path4669" transform="translate(71.326999, 28.601006) scale(-1, 1) rotate(-180.000000) translate(-71.326999, -28.601006) "></path>
                            <path d="M15.4726874,23.0553501 C13.7709563,22.718172 12.8126011,22.588053 11.1289735,22.588053 C8.63068747,22.588053 6.64608884,23.8281443 6.7535785,26.1023992 C6.83051847,27.6163063 8.62503012,30.8127094 13.1837233,30.8127094 C14.617296,30.8127094 15.7397144,30.5592601 17.2490955,29.6993428 L17.9110056,33.4150908 C15.8596502,34.1901478 14.5007546,34.3066892 12.740187,34.2874542 C6.76715615,34.2229604 1.02494518,31.5063006 0.314381928,25.9824634 C-0.409758963,20.3703715 6.44581863,18.9582968 9.48947331,18.9718744 C11.2466464,18.9764003 13.0739707,19.0488144 14.7790962,19.2253237 L15.4726874,23.0553501 Z" id="path4673" transform="translate(9.086094, 26.630560) scale(-1, 1) rotate(-180.000000) translate(-9.086094, -26.630560) "></path>
                            <path d="M57.9713839,30.6746667 L58.347032,32.8527467 L63.8176901,34.0430533 L63.234983,30.6746667 L65.9131728,30.6746667 L65.4051427,28.5192161 L62.8061558,28.5260049 L61.2277549,19.922306 C61.2277549,19.922306 55.9618929,19.9562501 55.9426579,19.922306 L57.5154014,28.504507 L55.5262769,28.504507 L55.9302117,30.6746667 L57.9713839,30.6746667 Z" id="path4685" transform="translate(60.719725, 26.982680) scale(-1, 1) rotate(-180.000000) translate(-60.719725, -26.982680) "></path>
                            <polygon id="path4689" transform="translate(83.215505, 26.588359) scale(-1, 1) rotate(-180.000000) translate(-83.215505, -26.588359) " points="84.6083448 19.1331019 79.2813834 19.1251816 81.9607047 34.0515357 87.1496267 33.905576"></polygon>
                            <path d="M31.5246274,23.2439605 L34.0704352,37.5830816 L38.6619411,37.5830816 L38.3066595,35.7523629 C38.7060684,36.298863 39.3419546,36.7480566 40.2211069,37.1135215 C41.1070481,37.4755919 42.1038733,37.7448818 43.1878216,37.7448818 C44.3860485,37.7448818 45.1248985,37.680388 46.0221544,37.2164853 C46.9148843,36.7480566 47.5360614,36.070306 47.8755024,35.1854964 C48.2194694,34.3153958 48.290752,33.3366742 48.1051909,32.2730922 C47.7940366,30.5057359 46.9318563,29.1117646 45.5197816,28.0877842 C44.1178901,27.0649352 42.8574324,26.7956453 41.0550004,26.7888564 C40.4168513,26.7888564 39.8839288,26.8556132 39.4403925,26.9631028 C39.0070395,27.0762499 38.6619411,27.2142892 38.3983085,27.3817468 C38.1482536,27.5503359 37.8812267,27.7845502 37.5372598,28.1590668 L36.6818683,23.2439605 L31.5246274,23.2439605 Z M41.0470801,35.1289229 C40.3614092,35.1289229 39.7413636,34.9218638 39.1892062,34.5054828 C38.6438376,34.0891018 38.2964762,33.4826338 38.1550425,32.6736327 C37.9909793,31.7401698 38.0871542,31.0703395 38.457145,30.6550899 C38.8305301,30.2443663 39.3679784,30.0384387 40.0740158,30.0384387 C40.5492333,30.0384387 41.0425543,30.123299 41.4046247,30.3020712 C41.8526869,30.5385485 42.1615782,30.7886034 42.4286052,31.182355 C42.7171301,31.5976045 42.9060856,32.0581129 43.003392,32.5944297 C43.1527461,33.4385065 43.0271529,34.0721297 42.6345327,34.4885108 C42.2543588,34.9173379 41.7293566,35.1289229 41.0470801,35.1289229 L41.0470801,35.1289229 Z" id="path4693" transform="translate(39.864815, 30.494421) scale(-1, 1) rotate(-180.000000) translate(-39.864815, -30.494421) "></path>
                            <path d="M126.92827,29.2446062 L127.342388,28.9640016 C126.29691,26.8334434 124.164089,25.1181346 121.661277,25.1181346 C119.614447,25.1181346 117.936477,26.4804247 117.848222,29.0398101 C117.683028,33.6245272 121.97922,37.8856437 125.496961,37.8856437 C127.006342,37.8856437 128.40597,37.2259966 128.468201,35.6012055 C128.597189,31.9544772 123.477286,30.8388477 120.103242,30.7630392 C119.99349,30.3828652 119.952757,29.9992968 119.973123,29.4165897 C120.027434,27.9049456 120.943925,26.6320417 122.834611,26.6320417 C124.468454,26.6320417 126.102297,27.9479414 126.92827,29.2446062 M126.468894,35.8297625 C126.439475,36.6930742 126.006122,37.2723869 125.115655,37.2723869 C122.970388,37.2723869 120.689344,33.0701068 120.295592,31.376296 C123.815596,31.376296 126.554885,33.4717787 126.468894,35.8297625" id="path4697" transform="translate(123.157096, 31.501889) scale(-1, 1) rotate(-180.000000) translate(-123.157096, -31.501889) "></path>
                            <path d="M105.947419,35.9443771 C106.310621,35.9930303 106.895591,36.0563927 107.147909,36.0563927 C107.532609,36.0563927 107.89468,35.9839786 107.912783,35.6026731 C107.919572,35.3763791 107.511111,33.7527195 107.425119,33.3759399 L106.609329,29.7789963 C106.281203,28.3069537 105.923659,26.7658913 105.606847,25.5484295 L107.70233,25.5484295 L108.88019,31.2465131 C112.474871,34.9894163 113.857527,36.2102726 114.70613,36.2102726 C115.087435,36.2102726 115.351068,36.0100024 115.369171,35.5528884 C115.390669,34.8943728 114.982208,33.3985693 114.839643,32.9697421 L113.638022,28.8138523 C113.364206,27.8792579 113.162804,27.0374442 113.180908,26.435502 C113.218247,25.5224056 113.769272,25.1173393 114.588457,25.1173393 C116.120467,25.1173393 117.23044,26.7138437 118.203504,28.2820613 L117.918374,28.7957488 C117.525753,28.1655199 116.617183,26.7896522 115.900962,26.7896522 C115.673537,26.7896522 115.46082,26.9401377 115.4529,27.3203117 C115.431402,27.8068439 115.63733,28.5321162 115.777632,29.0141225 L117.112767,33.8828385 C117.470311,35.2236306 117.643426,36.0869424 117.634374,36.5463192 C117.60043,37.4548898 117.069771,37.8803225 116.256244,37.8803225 C114.878113,37.8803225 113.046263,36.8733141 109.170978,32.4119273 L109.114404,32.4119273 L109.603199,34.5888759 C109.867963,35.7791825 110.12707,37.0215367 110.379388,37.8803225 C109.038596,37.3971848 107.11736,36.8563421 105.929316,36.6266536 L105.947419,35.9443771 Z" id="path4701" transform="translate(111.905175, 31.498831) scale(-1, 1) rotate(-180.000000) translate(-111.905175, -31.498831) "></path>
                        </g>
                    </g>
                </g>
            </g>
        </g>
    </g>
</svg>