<?xml version="1.0" encoding="UTF-8"?>
<svg width="30px" height="30px" viewBox="0 0 30 30" version="1.1" xmlns="http://www.w3.org/2000/svg" xmlns:xlink="http://www.w3.org/1999/xlink">
    <!-- Generator: Sketch 46.2 (44496) - http://www.bohemiancoding.com/sketch -->
    <title>Group 23</title>
    <desc>Created with Sketch.</desc>
    <defs></defs>
    <g id="Nav-Design" stroke="none" stroke-width="1" fill="none" fill-rule="evenodd">
        <g id="Nav_resources_resting" transform="translate(-730.000000, -162.000000)">
            <g id="Group-12" transform="translate(730.000000, 108.000000)">
                <g id="Group-5" transform="translate(0.000000, 54.000000)">
                    <g id="Group-23">
                        <g id="Group-17" transform="translate(6.000000, 5.000000)">
                            <g id="Group-10" transform="translate(0.586039, 0.771104)">
                                <g id="Group-9" stroke-width="0.5">
                                    <path d="M17.2687272,12.172307 C17.0104556,12.172307 16.8015105,11.9850637 16.8015105,11.7531203 L16.8015105,8.06338357 C16.7798955,8.01769023 16.7677024,7.96802357 16.7677024,7.9168669 C16.7677024,4.01306678 13.2239499,0.838373358 8.86880327,0.838373358 C4.51421089,0.838373358 0.969904119,4.01306678 0.969904119,7.9168669 C0.969904119,7.97299023 0.95826527,8.02613357 0.935541802,8.07580024 L0.935541802,11.7531203 C0.935541802,11.9850637 0.726596743,12.172307 0.467770901,12.172307 C0.210053521,12.172307 0,11.9850637 0,11.7531203 L0,7.9168669 C0,7.85925356 0.0133015422,7.80412356 0.037133472,7.75396023 C0.134123884,3.46325677 4.05807884,0 8.86880327,0 C13.68507,0 17.6123503,3.47120343 17.7010273,7.76737023 C17.7237508,7.8140569 17.7353896,7.86422023 17.7353896,7.9168669 L17.7353896,11.7531203 C17.7353896,11.9850637 17.5264446,12.172307 17.2687272,12.172307" id="Fill-533" stroke="#00A7CF" fill="#00A7CF"></path>
                                    <path d="M3.71500989,8.59382358 C2.14542791,8.81782026 0.935541802,10.148887 0.935541802,11.7531203 C0.935541802,13.3578504 2.14542791,14.6884204 3.71500989,14.9119204 L3.71500989,8.59382358 Z M4.18278079,15.7830738 C1.87718014,15.7830738 0,13.9757037 0,11.7531203 C0,9.53103361 1.87718014,7.72267023 4.18278079,7.72267023 C4.44160664,7.72267023 4.65055169,7.90991356 4.65055169,8.1418569 L4.65055169,15.3638871 C4.65055169,15.5958305 4.44160664,15.7830738 4.18278079,15.7830738 L4.18278079,15.7830738 Z" id="Fill-534" stroke="#2085B0" fill="#2085B0"></path>
                                    <path d="M14.0225966,8.59382358 L14.0225966,14.9119204 C15.5921786,14.6884204 16.8015105,13.3568571 16.8015105,11.752127 C16.8015105,10.148887 15.5921786,8.81782026 14.0225966,8.59382358 Z M13.5548257,15.7830738 C13.2971084,15.7830738 13.0870548,15.5958305 13.0870548,15.3638871 L13.0870548,8.1418569 C13.0870548,7.90991356 13.2971084,7.72267023 13.5548257,7.72267023 C15.8604264,7.72267023 17.7353896,9.53103361 17.7353896,11.752127 C17.7353896,13.9747104 15.8604264,15.7830738 13.5548257,15.7830738 L13.5548257,15.7830738 Z" id="Fill-535" stroke="#2085B0" fill="#2085B0"></path>
                                </g>
                                <path d="M1.56488732,15.905303 C1.56488732,17.6031005 2.33823907,18.9794372 4.21080977,18.9794372 L5.51101435,18.9794372" id="Oval-2" stroke="#00A7CF" stroke-width="0.7875"></path>
                                <ellipse id="Oval-3" stroke="#00A7CF" stroke-width="0.7875" cx="6.78117838" cy="18.8448186" rx="1.04325821" ry="1"></ellipse>
                            </g>
                        </g>
                        <g id="Group-14-Copy" fill="#00A7CF" opacity="0.0984488225">
                            <circle id="Oval-2" cx="15" cy="15" r="15"></circle>
                        </g>
                    </g>
                </g>
            </g>
        </g>
    </g>
</svg>