<?xml version="1.0" encoding="UTF-8"?>
<svg width="129px" height="32px" viewBox="0 0 129 32" version="1.1" xmlns="http://www.w3.org/2000/svg" xmlns:xlink="http://www.w3.org/1999/xlink">
    <!-- Generator: Sketch 46.2 (44496) - http://www.bohemiancoding.com/sketch -->
    <title>PayPal Copy</title>
    <desc>Created with Sketch.</desc>
    <defs></defs>
    <g id="All-Pages-Together_spacing-innacurate-to-accomodate-visuals" stroke="none" stroke-width="1" fill="none" fill-rule="evenodd">
        <g id="Landing-Page_Wireframe" transform="translate(-759.000000, -655.000000)" fill-rule="nonzero">
            <g id="Hero-#2" transform="translate(0.000000, 72.000000)">
                <g id="Logo-bar_grayed-out" transform="translate(135.000000, 570.000000)">
                    <g id="PayPal-Copy" transform="translate(618.000000, 0.000000)">
                        <g id="PayPal" transform="translate(6.588235, 13.176471)">
                            <path d="M47.8770512,6.99232258 L40.7914839,6.99232258 C40.306611,6.99232258 39.8942619,7.34458065 39.81863,7.82323719 L36.952907,25.9925009 C36.8959241,26.3509753 37.1735863,26.6742239 37.537241,26.6742239 L40.9199545,26.6742239 C41.4048273,26.6742239 41.8171765,26.3219658 41.8928083,25.8422732 L42.665704,20.9417419 C42.7402998,20.4620493 43.153685,20.1097913 43.6375218,20.1097913 L45.8805769,20.1097913 C50.5479962,20.1097913 53.2417343,17.8511954 53.9452144,13.3754459 C54.2622467,11.4173055 53.9586831,9.8787666 53.0417761,8.80127135 C52.0347324,7.61809867 50.2485769,6.99232258 47.8770512,6.99232258 Z M48.6944972,13.6282429 C48.3070133,16.1707173 46.3644137,16.1707173 44.4860493,16.1707173 L43.4168425,16.1707173 L44.166945,11.4224858 C44.2114953,11.1354991 44.460148,10.9241442 44.7502429,10.9241442 L45.240296,10.9241442 C46.5198216,10.9241442 47.7268235,10.9241442 48.3505275,11.6535256 C48.7224706,12.0886679 48.8364364,12.7351651 48.6944972,13.6282429 Z" id="Shape" fill="#AEB5BD"></path>
                            <path d="M69.0570854,13.5463947 L65.6640114,13.5463947 C65.3749526,13.5463947 65.1252638,13.7577495 65.0807135,14.0447362 L64.9304858,14.9937609 L64.6932296,14.6497913 C63.9586679,13.5836926 62.3206679,13.2272903 60.6857761,13.2272903 C56.9362998,13.2272903 53.7338596,16.067112 53.1101556,20.0507362 C52.785871,22.0378861 53.2469146,23.9380076 54.3741404,25.2631195 C55.4081214,26.481518 56.8876053,26.9891841 58.6478596,26.9891841 C61.6689905,26.9891841 63.3442884,25.0465844 63.3442884,25.0465844 L63.1930247,25.9893928 C63.1360417,26.3499393 63.413704,26.6731879 63.7752865,26.6731879 L66.8316433,26.6731879 C67.3175522,26.6731879 67.7278292,26.3209298 67.8044972,25.8412372 L69.6383112,14.2281176 C69.6963302,13.8706793 69.419704,13.5463947 69.0570854,13.5463947 Z M64.3275028,20.1501973 C64.0001101,22.0886528 62.4615712,23.3899355 60.4992865,23.3899355 C59.514,23.3899355 58.7265996,23.0739393 58.2210057,22.4751006 C57.719556,21.8804061 57.5289222,21.0339507 57.6884744,20.0911423 C57.9941101,18.1692638 59.5585503,16.8255028 61.4907894,16.8255028 C62.4543188,16.8255028 63.237575,17.1456433 63.7535294,17.7496622 C64.2705199,18.3598975 64.4756584,19.2115332 64.3275028,20.1501973 Z" id="Shape" fill="#AEB5BD"></path>
                            <path d="M87.1279241,13.5463947 L83.7182732,13.5463947 C83.3929526,13.5463947 83.0873169,13.708019 82.9028994,13.9784288 L78.2002543,20.9054801 L76.206888,14.2488387 C76.0815256,13.8323454 75.6971499,13.5463947 75.2620076,13.5463947 L71.9114118,13.5463947 C71.5042429,13.5463947 71.2214004,13.9442391 71.350907,14.3275787 L75.1065996,25.349112 L71.5757306,30.3335636 C71.2980683,30.7262277 71.5778027,31.2660114 72.0574953,31.2660114 L75.4630019,31.2660114 C75.7862505,31.2660114 76.088778,31.1085313 76.2721594,30.8433017 L87.612797,14.4736622 C87.8842429,14.0820342 87.6055446,13.5463947 87.1279241,13.5463947 Z" id="Shape" fill="#AEB5BD"></path>
                            <path d="M98.416759,6.99232258 L91.3301556,6.99232258 C90.8463188,6.99232258 90.4339696,7.34458065 90.3583378,7.82323719 L87.4926148,25.9925009 C87.4356319,26.3509753 87.7132941,26.6742239 88.0748767,26.6742239 L91.7114231,26.6742239 C92.0491765,26.6742239 92.3382353,26.4276433 92.391074,26.091962 L93.2043757,20.9417419 C93.2789715,20.4620493 93.6923567,20.1097913 94.1761935,20.1097913 L96.4182125,20.1097913 C101.086668,20.1097913 103.77937,17.8511954 104.483886,13.3754459 C104.801954,11.4173055 104.496319,9.8787666 103.579412,8.80127135 C102.573404,7.61809867 100.788285,6.99232258 98.416759,6.99232258 Z M99.2342049,13.6282429 C98.8477571,16.1707173 96.9051575,16.1707173 95.0257571,16.1707173 L93.9575863,16.1707173 L94.7087249,11.4224858 C94.7532751,11.1354991 94.9998558,10.9241442 95.2909867,10.9241442 L95.7810398,10.9241442 C97.0595294,10.9241442 98.2675674,10.9241442 98.8912713,11.6535256 C99.2632144,12.0886679 99.3761442,12.7351651 99.2342049,13.6282429 Z" id="Shape" fill="#AEB5BD"></path>
                            <path d="M119.595757,13.5463947 L116.204755,13.5463947 C115.913624,13.5463947 115.666008,13.7577495 115.622493,14.0447362 L115.472266,14.9937609 L115.233973,14.6497913 C114.499412,13.5836926 112.862448,13.2272903 111.227556,13.2272903 C107.47808,13.2272903 104.276676,16.067112 103.652972,20.0507362 C103.329723,22.0378861 103.788694,23.9380076 104.91592,25.2631195 C105.951973,26.481518 107.429385,26.9891841 109.189639,26.9891841 C112.21077,26.9891841 113.886068,25.0465844 113.886068,25.0465844 L113.734805,25.9893928 C113.677822,26.3499393 113.955484,26.6731879 114.319139,26.6731879 L117.374459,26.6731879 C117.858296,26.6731879 118.270645,26.3209298 118.346277,25.8412372 L120.181127,14.2281176 C120.237074,13.8706793 119.959412,13.5463947 119.595757,13.5463947 Z M114.866175,20.1501973 C114.540854,22.0886528 113.000243,23.3899355 111.037958,23.3899355 C110.054744,23.3899355 109.265271,23.0739393 108.759677,22.4751006 C108.258228,21.8804061 108.069666,21.0339507 108.227146,20.0911423 C108.534854,18.1692638 110.097222,16.8255028 112.029461,16.8255028 C112.992991,16.8255028 113.776247,17.1456433 114.292201,17.7496622 C114.811264,18.3598975 115.016402,19.2115332 114.866175,20.1501973 Z" id="Shape" fill="#AEB5BD"></path>
                            <path d="M123.595958,7.49066414 L120.687757,25.9925009 C120.630774,26.3509753 120.908436,26.6742239 121.270019,26.6742239 L124.193761,26.6742239 C124.67967,26.6742239 125.092019,26.3219658 125.166615,25.8422732 L128.03441,7.67404554 C128.091393,7.31557116 127.813731,6.99128653 127.452148,6.99128653 L124.17822,6.99128653 C123.889161,6.99232258 123.640509,7.20367742 123.595958,7.49066414 Z" id="Shape" fill="#AEB5BD"></path>
                            <path d="M7.52796205,30.205093 L8.06981784,26.7633245 L6.86281594,26.735351 L1.09925237,26.735351 L5.10463378,1.33858065 C5.11706641,1.26191271 5.15747249,1.19042505 5.21652751,1.13965844 C5.27558254,1.08889184 5.35121442,1.06091841 5.42995446,1.06091841 L15.1481328,1.06091841 C18.3744023,1.06091841 20.6008805,1.73228083 21.7633321,3.05739279 C22.308296,3.67902467 22.6553738,4.32862998 22.8232144,5.04350664 C22.9993435,5.79360911 23.0024516,6.68979507 22.8304668,7.78283112 L22.8180342,7.86260721 L22.8180342,8.56297913 L23.3629981,8.87172296 C23.8219696,9.11519545 24.1866603,9.39389374 24.4663947,9.7129981 C24.9326186,10.2444934 25.2341101,10.92 25.3615446,11.7208691 C25.4931233,12.5445313 25.4496091,13.5246376 25.2341101,14.6342505 C24.9854573,15.9106679 24.5834687,17.0223529 24.0405769,17.9320076 C23.5411992,18.7701746 22.9050626,19.4653662 22.1497799,20.0041139 C21.4286869,20.5159241 20.571871,20.904444 19.6031613,21.1530968 C18.6644972,21.3976053 17.5942543,21.5208956 16.4204061,21.5208956 L15.6640873,21.5208956 C15.1232676,21.5208956 14.5979886,21.7156736 14.1856395,22.0648235 C13.7722543,22.4212258 13.4987362,22.9081708 13.4148159,23.4407021 L13.357833,23.750482 L12.4005199,29.8165731 L12.3570057,30.0393245 C12.3456091,30.1097761 12.3259241,30.1450019 12.2969146,30.1688311 C12.2710133,30.1905882 12.2337154,30.205093 12.1974535,30.205093 L7.52796205,30.205093 Z" id="Shape" fill="#AEB5BD"></path>
                            <path d="M23.8789526,7.94341935 L23.8789526,7.94341935 L23.8789526,7.94341935 C23.8499431,8.12887287 23.8167894,8.31847059 23.7794915,8.51324858 C22.4978937,15.093222 18.1133169,17.3663226 12.5134497,17.3663226 L9.6622315,17.3663226 C8.97740038,17.3663226 8.40031879,17.8636281 8.29360531,18.5391347 L8.29360531,18.5391347 L8.29360531,18.5391347 L6.83380645,27.7973055 L6.42042125,30.4216281 C6.35100569,30.8650588 6.69290323,31.2649753 7.14047818,31.2649753 L12.1974535,31.2649753 C12.7962922,31.2649753 13.3049943,30.829833 13.3992751,30.2392827 L13.4490057,29.9823416 L14.4011385,23.9400797 L14.4622657,23.6085427 C14.5555104,23.0159203 15.0652486,22.580778 15.6640873,22.580778 L16.4204061,22.580778 C21.3199013,22.580778 25.15537,20.591556 26.2763795,14.8352448 C26.7446755,12.4305655 26.5022391,10.4226945 25.2631195,9.01055408 C24.8880683,8.58473624 24.4228805,8.23144213 23.8789526,7.94341935 Z" id="Shape" fill="#AEB5BD"></path>
                            <path d="M22.5382998,7.40881594 C22.3424858,7.35183302 22.1404554,7.30003036 21.9332448,7.25340797 C21.7249981,7.20782163 21.5115712,7.16741556 21.2919279,7.13218975 C20.5231765,7.00786338 19.6808653,6.94880835 18.778463,6.94880835 L11.1614004,6.94880835 C10.9738748,6.94880835 10.7956736,6.99128653 10.6361214,7.06795446 C10.2848994,7.23683112 10.023814,7.56940417 9.9606148,7.97657306 L8.3402277,18.2397154 L8.29360531,18.5391347 C8.40031879,17.8636281 8.97740038,17.3663226 9.6622315,17.3663226 L12.5134497,17.3663226 C18.1133169,17.3663226 22.4978937,15.092186 23.7794915,8.51324858 C23.8178254,8.31847059 23.8499431,8.12887287 23.8789526,7.94341935 C23.5546679,7.77143454 23.2034459,7.62431499 22.8252865,7.49895256 C22.7320417,7.46787097 22.6356888,7.43782543 22.5382998,7.40881594 Z" id="Shape" fill="#A0A6AD"></path>
                            <path d="M9.9606148,7.97657306 C10.023814,7.56940417 10.2848994,7.23683112 10.6361214,7.06899051 C10.7967097,6.99232258 10.9738748,6.9498444 11.1614004,6.9498444 L18.778463,6.9498444 C19.6808653,6.9498444 20.5231765,7.00889943 21.2919279,7.13322581 C21.5115712,7.16845161 21.7249981,7.20885769 21.9332448,7.25444402 C22.1404554,7.30106641 22.3424858,7.35286907 22.5382998,7.40985199 C22.6356888,7.43886148 22.7320417,7.46890702 22.8263226,7.49895256 C23.204482,7.62431499 23.555704,7.77247059 23.8799886,7.94341935 C24.2612562,5.51180266 23.8768805,3.85618975 22.562129,2.35702087 C21.1126907,0.706588235 18.4966565,0 15.1491689,0 L5.43099051,0 C4.74719545,0 4.16389753,0.497305503 4.05822011,1.1738482 L0.0103605313,26.831704 C-0.0694155598,27.33937 0.322212524,27.7973055 0.83402277,27.7973055 L6.83380645,27.7973055 L8.3402277,18.2397154 L9.9606148,7.97657306 Z" id="Shape" fill="#A7AEB5"></path>
                        </g>
                    </g>
                </g>
            </g>
        </g>
    </g>
</svg>