<?xml version="1.0" encoding="UTF-8"?>
<svg width="30px" height="30px" viewBox="0 0 30 30" version="1.1" xmlns="http://www.w3.org/2000/svg" xmlns:xlink="http://www.w3.org/1999/xlink">
    <!-- Generator: Sketch 46.2 (44496) - http://www.bohemiancoding.com/sketch -->
    <title>Taxonomy Icon</title>
    <desc>Created with Sketch.</desc>
    <defs></defs>
    <g id="Nav-Design" stroke="none" stroke-width="1" fill="none" fill-rule="evenodd">
        <g id="Nav_Product_resting_NEW_USE-ME!" transform="translate(-337.000000, -234.000000)">
            <g id="Taxonomy-Icon" transform="translate(337.000000, 234.000000)">
                <circle id="Oval" fill="#E8EAFB" cx="15" cy="15" r="15"></circle>
                <g id="Group-2" transform="translate(4.080469, 6.600000)">
                    <path d="M10.9467818,1.90718182 C10.7361818,1.90718182 10.5651818,1.77869091 10.5651818,1.62127273 L10.5651818,0.740672727 C10.5651818,0.583254545 10.7361818,0.454090909 10.9467818,0.454090909 C11.1573818,0.454090909 11.3283818,0.583254545 11.3283818,0.740672727 L11.3283818,1.62127273 C11.3283818,1.77869091 11.1573818,1.90718182 10.9467818,1.90718182" id="Fill-1067" fill="#1B2CD4"></path>
                    <path d="M10.9467818,4.31487273 C10.7361818,4.31487273 10.5651818,4.18705455 10.5651818,4.02963636 L10.5651818,3.14769091 C10.5651818,2.99027273 10.7361818,2.86245455 10.9467818,2.86245455 C11.1573818,2.86245455 11.3283818,2.99027273 11.3283818,3.14769091 L11.3283818,4.02963636 C11.3283818,4.18705455 11.1573818,4.31487273 10.9467818,4.31487273" id="Fill-1068" fill="#1B2CD4"></path>
                    <path d="M10.9467818,6.72323636 C10.7361818,6.72323636 10.5651818,6.59407273 10.5651818,6.43665455 L10.5651818,5.55605455 C10.5651818,5.39863636 10.7361818,5.26947273 10.9467818,5.26947273 C11.1573818,5.26947273 11.3283818,5.39863636 11.3283818,5.55605455 L11.3283818,6.43665455 C11.3283818,6.59407273 11.1573818,6.72323636 10.9467818,6.72323636" id="Fill-1069" fill="#1B2CD4"></path>
                    <path d="M10.9467818,9.1316 C10.7361818,9.1316 10.5651818,9.00378182 10.5651818,8.84636364 L10.5651818,7.96307273 C10.5651818,7.80565455 10.7361818,7.67850909 10.9467818,7.67850909 C11.1573818,7.67850909 11.3283818,7.80565455 11.3283818,7.96307273 L11.3283818,8.84636364 C11.3283818,9.00378182 11.1573818,9.1316 10.9467818,9.1316" id="Fill-1070" fill="#1B2CD4"></path>
                    <path d="M10.9467818,11.5386182 C10.7361818,11.5386182 10.5651818,11.4108 10.5651818,11.2533818 L10.5651818,10.3727818 C10.5651818,10.2140182 10.7361818,10.0868727 10.9467818,10.0868727 C11.1573818,10.0868727 11.3283818,10.2140182 11.3283818,10.3727818 L11.3283818,11.2533818 C11.3283818,11.4108 11.1573818,11.5386182 10.9467818,11.5386182" id="Fill-1071" fill="#1B2CD4"></path>
                    <path d="M10.9467818,13.9483273 C10.7361818,13.9483273 10.5651818,13.8205091 10.5651818,13.6617455 L10.5651818,12.7804727 C10.5651818,12.6223818 10.7361818,12.4952364 10.9467818,12.4952364 C11.1573818,12.4952364 11.3283818,12.6223818 11.3283818,12.7804727 L11.3283818,13.6617455 C11.3283818,13.8205091 11.1573818,13.9483273 10.9467818,13.9483273" id="Fill-1072" fill="#1B2CD4"></path>
                    <path d="M10.9467818,16.3553455 C10.7361818,16.3553455 10.5651818,16.2282 10.5651818,16.0701091 L10.5651818,15.1888364 C10.5651818,15.0307455 10.7361818,14.9022545 10.9467818,14.9022545 C11.1573818,14.9022545 11.3283818,15.0307455 11.3283818,15.1888364 L11.3283818,16.0701091 C11.3283818,16.2282 11.1573818,16.3553455 10.9467818,16.3553455" id="Fill-1073" fill="#1B2CD4"></path>
                    <path d="M1.2284,12.5039818 L7.04950909,12.5039818 L7.04950909,4.33841818 L1.2284,4.33841818 L1.2284,12.5039818 Z M7.62065455,13.6476182 L0.6586,13.6476182 C0.343090909,13.6476182 0.0867818182,13.3913091 0.0867818182,13.0758 L0.0867818182,3.7666 C0.0867818182,3.45109091 0.343090909,3.19612727 0.6586,3.19612727 L7.62065455,3.19612727 C7.93616364,3.19612727 8.19112727,3.45109091 8.19112727,3.7666 L8.19112727,13.0758 C8.19112727,13.3913091 7.93616364,13.6476182 7.62065455,13.6476182 L7.62065455,13.6476182 Z" id="Fill-1074" fill="#6772E5"></path>
                    <path d="M21.3338727,13.6476182 L14.3718182,13.6476182 C14.0563091,13.6476182 13.8,13.3913091 13.8,13.0758 L13.8,3.7666 C13.8,3.45109091 14.0563091,3.19612727 14.3718182,3.19612727 L21.3338727,3.19612727 C21.6493818,3.19612727 21.9043455,3.45109091 21.9043455,3.7666 L21.9043455,13.0758 C21.9043455,13.3913091 21.6493818,13.6476182 21.3338727,13.6476182 L21.3338727,13.6476182 Z" id="Fill-1075" fill="#6772E5"></path>
                </g>
            </g>
        </g>
    </g>
</svg>