<?xml version="1.0" encoding="UTF-8"?>
<svg width="44px" height="36px" viewBox="0 0 44 36" version="1.1" xmlns="http://www.w3.org/2000/svg" xmlns:xlink="http://www.w3.org/1999/xlink">
    <!-- Generator: Sketch 46.2 (44496) - http://www.bohemiancoding.com/sketch -->
    <title>Twitter Copy</title>
    <desc>Created with Sketch.</desc>
    <defs></defs>
    <g id="All-Pages-Together_spacing-innacurate-to-accomodate-visuals" stroke="none" stroke-width="1" fill="none" fill-rule="evenodd">
        <g id="Landing-Page_Wireframe" transform="translate(-595.000000, -654.000000)" fill-rule="nonzero" fill="#AEB5BD">
            <g id="Hero-#2" transform="translate(0.000000, 72.000000)">
                <g id="Logo-bar_grayed-out" transform="translate(135.000000, 570.000000)">
                    <g id="Twitter-Copy" transform="translate(412.000000, 0.000000)">
                        <path d="M61.7735125,47.5882353 C78.3010267,47.5882353 87.3408797,33.8953107 87.3408797,22.0208681 C87.3408797,21.6319442 87.3408797,21.2447722 87.3146011,20.8593521 C89.0732228,19.5873096 90.5912946,18.0122879 91.7977375,16.2080324 C90.1577383,16.9347275 88.4180049,17.411294 86.6366121,17.6218233 C88.5124586,16.4988179 89.916403,14.7325251 90.587168,12.6516561 C88.8232711,13.6983437 86.8935228,14.435997 84.8811988,14.8327834 C82.0958077,11.8709952 77.6698476,11.1460871 74.0851428,13.064546 C70.500438,14.9830049 68.6484871,19.0677193 69.5677578,23.028216 C62.3427004,22.6660079 55.6111284,19.2534174 51.0483225,13.639733 C48.6633128,17.7455865 49.8815296,22.9981874 53.8303548,25.6350574 C52.4003433,25.5926744 51.0015104,25.2069138 49.7519095,24.5103315 C49.7519095,24.5471216 49.7519095,24.5856636 49.7519095,24.6242056 C49.75308,28.9016555 52.7682623,32.5858199 56.9610171,33.4328065 C55.638097,33.7935949 54.2500783,33.8463348 52.9035947,33.5869746 C54.0807866,37.2474543 57.4543102,39.7550693 61.298745,39.8272762 C58.1168132,42.3280078 54.1860967,43.6855551 50.1390815,43.6814771 C49.4241335,43.6801046 48.7098809,43.6368165 48,43.5518358 C52.1093419,46.1889441 56.890789,47.5877394 61.7735125,47.5812277" id="Shape"></path>
                    </g>
                </g>
            </g>
        </g>
    </g>
</svg>