<?xml version="1.0" encoding="UTF-8"?>
<svg width="81px" height="48px" viewBox="0 0 81 48" version="1.1" xmlns="http://www.w3.org/2000/svg" xmlns:xlink="http://www.w3.org/1999/xlink">
    <!-- Generator: Sketch 46.2 (44496) - http://www.bohemiancoding.com/sketch -->
    <title>Underarmour</title>
    <desc>Created with Sketch.</desc>
    <defs></defs>
    <g id="All-Pages-Together_spacing-innacurate-to-accomodate-visuals" stroke="none" stroke-width="1" fill="none" fill-rule="evenodd">
        <g id="Landing-Page_Wireframe" transform="translate(-988.000000, -648.000000)" fill-rule="nonzero" fill="#AEB5BD">
            <g id="Hero-#2" transform="translate(0.000000, 72.000000)">
                <g id="Logo-bar_grayed-out" transform="translate(135.000000, 570.000000)">
                    <g id="Underarmour" transform="translate(823.000000, 0.000000)">
                        <g id="Under_armour_logo-(1)" transform="translate(30.000000, 6.000000)">
                            <path d="M59.4405,17.8593677 C66.0152187,20.7809981 70.3083526,25.168549 70.5422872,30.0359882 C70.5422872,30.0359882 68.8065499,31.386677 63.2022268,33.4695968 C58.2809351,35.2987154 54.5264285,35.7173414 54.5264285,35.7173414 L54.543757,24.8724476 C54.543757,23.2519127 53.8997147,21.5978294 52.6838322,20.1333676 C48.9639825,21.0406338 44.8527978,21.5496947 40.5408914,21.5511533 L40.5380033,21.5511533 C36.2232088,21.5496947 32.107692,21.0391752 28.3835102,20.1304504 C27.1676277,21.5949122 26.5221414,23.2504541 26.5221414,24.8724476 L26.5380258,35.7173414 C26.5380258,35.7173414 22.7864073,35.2987154 17.8622275,33.4695968 C12.2579044,31.386677 10.5250552,30.0359882 10.5250552,30.0359882 C10.7575458,25.1670904 15.0521237,20.7780809 21.6340626,17.8564505 C15.0578999,14.93482 10.764766,10.5472692 10.5322754,5.68128862 C10.5322754,5.68128862 12.2665686,4.32914114 17.8708917,2.24768002 C22.7936275,0.418561418 26.5466901,-6.46090909e-05 26.5466901,-6.46090909e-05 L26.5293616,10.8448292 C26.5293616,12.4653641 27.1734039,14.120906 28.3907304,15.5839092 C32.11058,14.6751844 36.2203207,14.1675821 40.5322271,14.1675821 L40.5336712,14.1675821 C44.8499097,14.1675821 48.9668706,14.676643 52.6896083,15.5882851 C53.9054908,14.1238233 54.5495331,12.4653641 54.5495331,10.8448292 L54.5350927,-6.46090909e-05 C54.5350927,-6.46090909e-05 58.2881553,0.418561418 63.2108911,2.24768002 C68.8152142,4.32914114 70.5495074,5.68128862 70.5495074,5.68128862 C70.3155728,10.5501865 66.0209948,14.9391959 59.4405,17.8593677 M40.5351152,15.4190843 L40.5307831,15.4190843 L40.4080396,15.4220015 C36.5149051,15.4220015 33.340903,16.3846955 31.0131089,17.8564505 C33.340903,19.3311226 36.5163491,20.2952753 40.4167039,20.2952753 L40.5365593,20.2967339 L40.5423354,20.2967339 L40.6650789,20.2952753 C44.5596575,20.2952753 47.7322156,19.3325813 50.0600097,17.8608263 C47.7322156,16.3876128 44.5567694,15.4220015 40.6578587,15.4220015" id="Shape" transform="translate(40.537281, 17.858638) scale(-1, 1) rotate(-180.000000) translate(-40.537281, -17.858638) "></path>
                            <path d="M1.919187,42.7033804 C0.033269454,42.7033804 5.6511e-05,44.1561732 5.6511e-05,44.7162861 L5.6511e-05,47.3593187 C5.6511e-05,47.5197677 -0.012939858,47.7327273 0.323521695,47.7327273 L1.29824937,47.7327273 C1.61449435,47.7327273 1.59427778,47.5051814 1.59427778,47.3593187 L1.59427778,44.7162861 C1.59427778,44.5281232 1.62893476,44.0234381 2.31485423,44.0234381 L3.94950865,44.0234381 C4.62243175,44.0234381 4.66142086,44.5281232 4.66142086,44.7162861 L4.66142086,47.3593187 C4.66142086,47.5051814 4.64264833,47.7327273 4.95744926,47.7327273 L5.93939714,47.7327273 C6.29607527,47.7327273 6.26430637,47.5051814 6.26430637,47.3593187 L6.26430637,44.7162861 C6.26430637,44.1561732 6.23109343,42.7033804 4.33795568,42.7033804" id="Shape" transform="translate(3.132511, 45.218054) scale(-1, 1) rotate(-180.000000) translate(-3.132511, -45.218054) "></path>
                            <path d="M10.95147,43.0236248 C10.2857671,43.9294324 9.33558812,45.0700789 8.36663661,46.274905 L8.36663661,43.0571733 C8.36663661,42.917145 8.40129359,42.7041855 8.07060821,42.7041855 L7.16086238,42.7041855 C6.83162103,42.7041855 6.87061013,42.917145 6.87061013,43.0571733 L6.87061013,47.3601237 C6.87061013,47.5059864 6.85616972,47.7335323 7.16086238,47.7335323 L8.93414472,47.7335323 C9.43522695,47.7335323 10.1485832,46.7139518 10.6164525,46.0415247 C10.9774627,45.5280879 11.6446097,44.756474 12.0922624,44.177399 L12.0922624,47.3601237 C12.0922624,47.5059864 12.0720458,47.7335323 12.4027312,47.7335323 L13.3904552,47.7335323 C13.7081443,47.7335323 13.6879277,47.5059864 13.6879277,47.3601237 L13.6879277,42.7041855 L11.868436,42.7041855 C11.478545,42.7041855 11.3067041,42.6779302 10.95147,43.0236248" id="Shape" transform="translate(10.278683, 45.218631) scale(-1, 1) rotate(-180.000000) translate(-10.278683, -45.218631) "></path>
                            <path d="M18.44748,44.0367795 C19.2445906,44.0367795 19.186829,44.8098519 19.186829,45.1628397 C19.186829,46.3487037 18.8561436,46.3953798 18.3290686,46.3953798 L15.8236575,46.3953798 L15.8236575,44.0367795 L18.44748,44.0367795 L18.44748,44.0367795 Z M14.2857538,42.7123459 L14.2857538,47.7343996 L18.6799706,47.7343996 C18.9485622,47.7343996 20.7478373,47.7664894 20.7478373,45.8571463 C20.7478373,43.9040444 20.9586673,42.7123459 18.7189597,42.7123459 L16.3507325,42.7123459 L15.8366539,43.7640162 L15.8366539,42.7123459 L14.2857538,42.7123459 Z" id="Shape" transform="translate(17.519442, 45.223390) scale(-1, 1) rotate(-180.000000) translate(-17.519442, -45.223390) "></path>
                            <path d="M22.46913,47.7578474 L26.5167769,47.7578474 C26.8604587,47.7578474 26.8142494,47.5317602 26.8142494,47.1116755 C26.8142494,46.7207634 26.8662348,46.5005107 26.5167769,46.5005107 L23.3182261,46.5005107 C23.2330277,46.5005107 22.9442195,46.5471868 22.9442195,46.240875 C22.9442195,45.9345633 22.8850138,45.8134972 23.207035,45.8134972 L26.0359113,45.8134972 C26.0359113,45.8134972 26.4445749,45.0272971 26.4907842,44.8945621 C26.5572101,44.7749546 26.5499899,44.6611817 26.3001708,44.6611817 L23.3716556,44.6611817 L22.9167827,45.5538616 L22.9167827,44.2352625 C22.9167827,43.9289508 23.1882624,43.9887545 23.2662406,43.9887545 L26.588979,43.9887545 C26.9196644,43.9887545 26.8922276,43.7568328 26.8922276,43.3775897 C26.8922276,42.9691741 26.9196644,42.7445455 26.588979,42.7445455 L22.3824875,42.7445455 C22.0330296,42.7445455 21.3485542,42.8510252 21.3485542,43.9552061 L21.3485542,46.7265979 C21.3485542,47.0124889 21.5001785,47.7578474 22.46913,47.7578474" id="Shape" transform="translate(24.120669, 45.251196) scale(-1, 1) rotate(-180.000000) translate(-24.120669, -45.251196) "></path>
                            <path d="M31.4334,46.4077527 L29.462284,46.4077527 C29.1344867,46.4077527 29.1460391,46.2939798 29.1460391,46.1933345 L29.1460391,45.2948201 L31.1763607,45.2948201 C32.1597526,45.2948201 32.1597526,45.5427867 32.1597526,45.8024224 C32.1597526,46.3216937 32.1207635,46.4077527 31.4334,46.4077527 M27.9070519,47.7336449 L32.3373697,47.7336449 C32.9308705,47.7336449 33.792963,47.7394794 33.792963,46.1218617 C33.792963,45.0628983 33.5705807,45.0103878 33.0954912,44.6836552 C33.8940459,44.543627 33.7886309,43.5123775 33.7886309,42.97852 C33.7886309,42.7057567 33.6904361,42.7115912 33.6095698,42.7115912 L32.3113769,42.7115912 C32.0398972,42.7115912 32.1063231,43.1448035 32.1063231,43.3708907 C32.1063231,43.9908073 31.7640854,43.9630934 31.6312336,43.9630934 L29.7193233,43.9630934 C29.5359301,44.2839914 29.179252,45.0030946 29.179252,45.0030946 L29.179252,42.9187162 C29.179252,42.7378465 29.0001909,42.7115912 28.9352091,42.7115912 L27.63124,42.7115912 C27.7019981,42.7115912 27.4969442,42.6984635 27.4969442,42.8793333 L27.4969442,47.3004326 C27.4969442,47.6140374 27.7149944,47.7336449 27.9070519,47.7336449" id="Shape" transform="translate(30.645087, 45.222513) scale(-1, 1) rotate(-180.000000) translate(-30.645087, -45.222513) "></path>
                            <path d="M40.8942,46.3686129 L40.0768728,44.8633096 L40.1490748,44.7903782 L41.6725381,44.7903782 L41.7519604,44.8633096 C41.6985308,44.9770825 41.0400481,46.2417123 40.9736223,46.375906 L40.8942,46.3686129 M41.421275,47.7586847 C41.7447401,47.7586847 42.0595411,47.612822 42.4032228,46.9403948 C42.6357134,46.461965 44.2443751,43.5257483 44.5793926,42.9116663 L44.5793926,42.7453828 L42.9043051,42.7453828 L42.4219954,43.624935 L40.3858976,43.624935 C40.3858976,43.624935 40.0436599,44.4169696 39.9454651,44.6357637 C39.8198335,44.4300973 39.1469104,43.1377535 38.9144198,42.7453828 L37.2350001,42.7453828 L37.2350001,42.8518625 C37.5772378,43.5038689 39.9180283,47.7586847 39.9180283,47.7586847" id="Shape" transform="translate(40.907196, 45.252034) scale(-1, 1) rotate(-180.000000) translate(-40.907196, -45.252034) "></path>
                            <path d="M48.9726,46.4077527 L47.001484,46.4077527 C46.6722427,46.4077527 46.6852391,46.2939798 46.6852391,46.1933345 L46.6852391,45.2948201 L48.7155607,45.2948201 C49.6989526,45.2948201 49.6989526,45.5427867 49.6989526,45.8024224 C49.6989526,46.3216937 49.6599635,46.4077527 48.9726,46.4077527 M45.4462519,47.7336449 L49.8765697,47.7336449 C50.4700705,47.7336449 51.333607,47.7394794 51.333607,46.1218617 C51.333607,45.0628983 51.1112247,45.0103878 50.6346912,44.6836552 C51.4318018,44.543627 51.3263868,43.5123775 51.3263868,42.97852 C51.3263868,42.7057567 51.228192,42.7115912 51.1487698,42.7115912 L49.8505769,42.7115912 C49.5790972,42.7115912 49.6455231,43.1448035 49.6455231,43.3708907 C49.6455231,43.9908073 49.3032854,43.9630934 49.1704336,43.9630934 L47.2585233,43.9630934 C47.0736861,44.2839914 46.717008,45.0030946 46.717008,45.0030946 L46.717008,42.9187162 C46.717008,42.7378465 46.540835,42.7115912 46.4744091,42.7115912 L45.168996,42.7115912 C45.2411981,42.7115912 45.0375883,42.6984635 45.0375883,42.8793333 L45.0375883,47.3004326 C45.0375883,47.6140374 45.2556385,47.7336449 45.4462519,47.7336449" id="Shape" transform="translate(48.185598, 45.222513) scale(-1, 1) rotate(-180.000000) translate(-48.185598, -45.222513) "></path>
                            <path d="M55.2042,42.7098129 C54.8735146,43.335564 53.9565486,45.0611201 53.337055,46.1915562 L53.337055,43.0628007 C53.337055,42.9227725 53.3558275,42.7098129 53.0424706,42.7098129 L52.1442771,42.7098129 C51.8078156,42.7098129 51.8338083,42.9227725 51.8338083,43.0628007 L51.8338083,47.3657512 C51.8338083,47.5116139 51.8150358,47.7318666 52.1442771,47.7318666 L53.6937331,47.7318666 C53.9247797,47.7318666 54.252577,47.7858359 54.6236955,47.0390187 C54.9009514,46.4409815 55.4886761,45.1996897 55.8901195,44.5418488 C56.3045592,45.1996897 56.9052803,46.4409815 57.1825362,47.0390187 C57.5449905,47.7858359 57.8670116,47.7318666 58.1240509,47.7318666 L59.6662867,47.7318666 C59.9839757,47.7318666 59.9507628,47.5116139 59.9507628,47.3657512 L59.9507628,43.0628007 C59.9507628,42.9227725 59.995528,42.7098129 59.6662867,42.7098129 L58.7637611,42.7098129 C58.4345197,42.7098129 58.4605125,42.9227725 58.4605125,43.0628007 L58.4605125,46.1915562 C57.8352427,45.0611201 56.9240528,43.335564 56.5803711,42.7098129" id="Shape" transform="translate(55.893076, 45.221270) scale(-1, 1) rotate(-180.000000) translate(-55.893076, -45.221270) "></path>
                            <path d="M64.8945,43.9768873 C65.6410692,43.9768873 65.6136324,44.7543356 65.6136324,45.2750655 C65.6136324,45.7418263 65.7190474,46.4740571 64.7500959,46.4740571 L63.1067772,46.4740571 C62.1450459,46.4740571 62.2576811,45.7418263 62.2576811,45.2750655 C62.2576811,44.7543356 62.2114718,43.9768873 62.956597,43.9768873 L64.8945,43.9768873 Z M61.9414362,42.6845435 C60.4714024,42.6845435 60.5363843,44.2773645 60.5363843,45.3071553 C60.5363843,46.2538044 60.4309693,47.7313939 62.2706775,47.7459801 L65.5356542,47.7459801 C67.3811386,47.7459801 67.2612832,46.2479699 67.2612832,45.3071553 C67.2612832,44.2773645 67.3349293,42.6845435 65.8432349,42.6845435 L61.9414362,42.6845435 Z" id="Shape" transform="translate(63.899069, 45.215262) scale(-1, 1) rotate(-180.000000) translate(-63.899069, -45.215262) "></path>
                            <path d="M69.7194,42.7033804 C67.8320384,42.7033804 67.8002695,44.1561732 67.8002695,44.7162861 L67.8002695,47.3593187 C67.8002695,47.5197677 67.7872731,47.7327273 68.1237347,47.7327273 L69.0999064,47.7327273 C69.4147073,47.7327273 69.3959348,47.5051814 69.3959348,47.3593187 L69.3959348,44.7162861 C69.3959348,44.5281232 69.4291478,44.0234381 70.1150672,44.0234381 L71.7497216,44.0234381 C72.4226448,44.0234381 72.4616339,44.5281232 72.4616339,44.7162861 L72.4616339,47.3593187 C72.4616339,47.5051814 72.4414173,47.7327273 72.7576623,47.7327273 L73.7396101,47.7327273 C74.0962883,47.7327273 74.0645194,47.5051814 74.0645194,47.3593187 L74.0645194,44.7162861 C74.0645194,44.1561732 74.0313064,42.7033804 72.1381687,42.7033804" id="Shape" transform="translate(70.932724, 45.218054) scale(-1, 1) rotate(-180.000000) translate(-70.932724, -45.218054) "></path>
                            <path d="M78.6375,46.4077527 L76.666384,46.4077527 C76.3371427,46.4077527 76.3501391,46.2939798 76.3501391,46.1933345 L76.3501391,45.2948201 L78.3804607,45.2948201 C79.3638526,45.2948201 79.3638526,45.5427867 79.3638526,45.8024224 C79.3638526,46.3216937 79.3248635,46.4077527 78.6375,46.4077527 M75.1097078,47.7336449 L79.5414697,47.7336449 C80.1349705,47.7336449 80.9999511,47.7394794 80.9999511,46.1218617 C80.9999511,45.0628983 80.7746807,45.0103878 80.2995912,44.6836552 C81.0981459,44.543627 80.9927309,43.5123775 80.9927309,42.97852 C80.9927309,42.7057567 80.8945361,42.7115912 80.8136698,42.7115912 L79.5154769,42.7115912 C79.2454413,42.7115912 79.3104231,43.1448035 79.3104231,43.3708907 C79.3104231,43.9908073 78.9681854,43.9630934 78.8367777,43.9630934 L76.9234233,43.9630934 C76.7400301,44.2839914 76.383352,45.0030946 76.383352,45.0030946 L76.383352,42.9187162 C76.383352,42.7378465 76.2042909,42.7115912 76.1393091,42.7115912 L74.83534,42.7115912 C74.9060981,42.7115912 74.7024883,42.6984635 74.7024883,42.8793333 L74.7024883,47.3004326 C74.7024883,47.6140374 74.9205385,47.7336449 75.1097078,47.7336449" id="Shape" transform="translate(77.851220, 45.222513) scale(-1, 1) rotate(-180.000000) translate(-77.851220, -45.222513) "></path>
                        </g>
                    </g>
                </g>
            </g>
        </g>
    </g>
</svg>