<?xml version="1.0" encoding="UTF-8"?>
<svg width="36px" height="36px" viewBox="0 0 36 36" version="1.1" xmlns="http://www.w3.org/2000/svg" xmlns:xlink="http://www.w3.org/1999/xlink">
    <!-- Generator: Sketch 46.2 (44496) - http://www.bohemiancoding.com/sketch -->
    <title>Group 14</title>
    <desc>Created with Sketch.</desc>
    <defs></defs>
    <g id="Nav-Design" stroke="none" stroke-width="1" fill="none" fill-rule="evenodd">
        <g id="Nav_Product_resting_NEW_USE-ME!" transform="translate(-334.000000, -108.000000)">
            <g id="Group-15" transform="translate(298.000000, 56.000000)">
                <g id="Group-13">
                    <g id="Group-12" transform="translate(36.000000, 52.000000)">
                        <g id="Group-14">
                            <circle id="Oval-2" fill="#00A7CF" opacity="0.0984488225" cx="18" cy="18" r="18"></circle>
                            <g id="Group-3" transform="translate(9.000000, 4.821429)">
                                <path d="M9.10653061,22.9762982 C4.08409439,22.9762982 0,18.8677982 0,13.8157044 C0,8.76593099 4.08409439,4.65743099 9.10653061,4.65743099 C9.47571429,4.65743099 9.76798469,4.95288412 9.76798469,5.32026693 C9.76798469,5.68610287 9.47571429,5.98155599 9.10653061,5.98155599 C4.81477041,5.98155599 1.31521684,9.49682943 1.31521684,13.8157044 C1.31521684,18.1361263 4.81477041,21.6498529 9.10653061,21.6498529 C11.8061862,21.6498529 14.275102,20.2770013 15.7133801,17.9760247 C15.9056633,17.6681966 16.3133036,17.5746107 16.6209566,17.7679701 C16.9286097,17.9628763 17.0209056,18.3720247 16.8286224,18.6813997 C15.1442219,21.3706419 12.2599745,22.9762982 9.10653061,22.9762982" id="Fill-1027" fill="#00A7CF"></path>
                                <path d="M20.1128189,18.6728919 L12.4214923,18.6728919 C12.06,18.6728919 11.7600383,18.3766654 11.7600383,18.0108294 C11.7600383,17.6442201 12.06,17.3479935 12.4214923,17.3479935 L20.1128189,17.3479935 C20.4820026,17.3479935 20.774273,17.6442201 20.774273,18.0108294 C20.774273,18.3766654 20.4820026,18.6728919 20.1128189,18.6728919" id="Fill-1028" fill="#00A7CF"></path>
                                <path d="M8.46815051,24.5340013 C8.09896684,24.5340013 7.80669643,24.2377747 7.80669643,23.8703919 L7.80669643,22.3134622 C7.80669643,21.9460794 8.09896684,21.6498529 8.46815051,21.6498529 C8.82964286,21.6498529 9.12191327,21.9460794 9.12191327,22.3134622 L9.12191327,23.8703919 C9.12191327,24.2377747 8.82964286,24.5340013 8.46815051,24.5340013" id="Fill-1029" fill="#00A7CF"></path>
                                <path d="M11.9600128,24.7497904 L4.96859694,24.7497904 C4.60710459,24.7497904 4.30714286,24.4535638 4.30714286,24.0869544 C4.30714286,23.7211185 4.60710459,23.4248919 4.96859694,23.4248919 L11.9600128,23.4248919 C12.3215051,23.4248919 12.6214668,23.7211185 12.6214668,24.0869544 C12.6214668,24.4535638 12.3215051,24.7497904 11.9600128,24.7497904" id="Fill-1030" fill="#00A7CF"></path>
                                <path d="M9.07576531,2.76714974 L12.7137628,10.1364622 L15.1519133,8.91984505 L11.5139158,1.55130599 L9.07576531,2.76714974 Z M12.4214923,11.6872044 C12.1753699,11.6872044 11.9446301,11.5518529 11.8292602,11.3190482 L7.60672194,2.76250912 C7.44520408,2.43534505 7.57595663,2.03779818 7.90668367,1.87460287 L11.5216071,0.0693997405 C11.8446429,-0.093795572 12.2369005,0.040782553 12.3984184,0.368720053 L16.628648,8.92448568 C16.7055612,9.08149349 16.7132526,9.26479818 16.6594133,9.4303138 C16.605574,9.59660287 16.4825128,9.73582162 16.3286862,9.81316537 L12.7137628,11.6183685 C12.6137755,11.6647747 12.5214796,11.6872044 12.4214923,11.6872044 L12.4214923,11.6872044 Z" id="Fill-1031" fill="#2085B0"></path>
                                <path d="M13.3675255,13.6122904 C13.1290944,13.6122904 12.8906633,13.4777122 12.7829847,13.2433607 C12.6137755,12.9154232 12.7522194,12.5186497 13.0752551,12.3554544 L16.6901786,10.5502513 C17.0132143,10.387056 17.4131633,10.5216341 17.5746811,10.8487982 C17.736199,11.1767357 17.6054464,11.5742826 17.2747194,11.7374779 L13.6597959,13.542681 C13.5675,13.5890872 13.4675128,13.6122904 13.3675255,13.6122904" id="Fill-1032" fill="#2085B0"></path>
                                <path d="M9.16806122,4.77189974 C9.045,4.77189974 8.9296301,4.70538412 8.87579082,4.58936849 C8.79118622,4.4246263 8.86040816,4.22507943 9.02192602,4.14309505 L12.6137755,2.3518138 C12.7752934,2.27214974 12.9752679,2.33711849 13.0521811,2.50108724 C13.1367857,2.66428255 13.0675638,2.86382943 12.9060459,2.9458138 L9.31419643,4.73864193 C9.26804847,4.76107162 9.22190051,4.77189974 9.16806122,4.77189974" id="Fill-1033" fill="#2085B0"></path>
                                <path d="M9.70645408,5.86399349 C9.58339286,5.86399349 9.46802296,5.79747787 9.41418367,5.68146224 C9.32957908,5.51672005 9.39880102,5.31717318 9.56031888,5.23596224 L13.1521684,3.44545443 C13.3136862,3.36579037 13.5136607,3.43075912 13.590574,3.5955013 C13.6751786,3.75947005 13.6059566,3.95747005 13.4444388,4.03945443 L9.85258929,5.83073568 C9.80644133,5.85316537 9.76029337,5.86399349 9.70645408,5.86399349" id="Fill-1034" fill="#2085B0"></path>
                            </g>
                        </g>
                    </g>
                </g>
            </g>
        </g>
    </g>
</svg>