<?xml version="1.0" encoding="UTF-8"?>
<svg width="30px" height="30px" viewBox="0 0 30 30" version="1.1" xmlns="http://www.w3.org/2000/svg" xmlns:xlink="http://www.w3.org/1999/xlink">
    <!-- Generator: Sketch 46.2 (44496) - http://www.bohemiancoding.com/sketch -->
    <title>Group 22</title>
    <desc>Created with Sketch.</desc>
    <defs></defs>
    <g id="Nav-Design" stroke="none" stroke-width="1" fill="none" fill-rule="evenodd">
        <g id="Nav_resources_resting" transform="translate(-730.000000, -108.000000)">
            <g id="Group-12" transform="translate(730.000000, 108.000000)">
                <g id="Group-3">
                    <g id="Group-22">
                        <g id="Group-20" transform="translate(7.000000, 4.000000)">
                            <g id="Group-2" transform="translate(0.000000, 0.737647)">
                                <path d="M9.95171123,14.9913048 L10.4068984,17.2964011 L11.964492,15.5382406 L15.3286096,3.13439037 C15.4779679,2.58105348 15.1508021,2.00709091 14.6031551,1.85702139 C14.055508,1.71050802 13.4722995,2.04834225 13.3229412,2.58958824 L9.95171123,14.9913048 Z M10.0441711,19.2437487 C9.99438503,19.2437487 9.93748663,19.2359251 9.88770053,19.2209893 C9.66010695,19.1605348 9.48941176,18.9777487 9.44673797,18.7487326 L8.72839572,15.0873209 C8.70705882,14.994861 8.70705882,14.8995561 8.73550802,14.8092299 L12.1422995,2.26740107 C12.4125668,1.28305882 13.3087166,0.595299465 14.3257754,0.595299465 C14.5249198,0.595299465 14.7240642,0.622326203 14.9232086,0.674245989 C16.1251872,1.00283422 16.8435294,2.25033155 16.5163636,3.45586631 L13.1095722,15.996984 C13.081123,16.0880214 13.0384492,16.1712353 12.9744385,16.2423583 L10.5064706,19.0367807 C10.3855615,19.1697807 10.2219786,19.2437487 10.0441711,19.2437487 L10.0441711,19.2437487 Z" id="Fill-763" fill="#00A7CF"></path>
                                <path d="M15.8620321,3.81503743 C15.8406952,3.81503743 15.812246,3.81148128 15.7837968,3.80436898 L12.5974866,2.93737968 C12.4339037,2.89257219 12.3343316,2.72543316 12.3770053,2.56185027 C12.4196791,2.39897861 12.5903743,2.30225134 12.7539572,2.34634759 L15.9473797,3.2133369 C16.1109626,3.25743316 16.2034225,3.42457219 16.1607487,3.58886631 C16.1251872,3.72471123 15.9971658,3.81503743 15.8620321,3.81503743" id="Fill-764" fill="#00A7CF"></path>
                                <path d="M15.6273262,4.68202674 C15.6059893,4.68202674 15.5775401,4.67918182 15.5490909,4.67135829 L12.3556684,3.80579144 C12.1920856,3.76098396 12.0996257,3.59313369 12.1422995,3.4295508 C12.1849733,3.26739037 12.3556684,3.1706631 12.5192513,3.21475936 L15.7055615,4.0803262 C15.8762567,4.12513369 15.9687166,4.29227273 15.9260428,4.45656684 C15.8904813,4.59241176 15.7624599,4.68202674 15.6273262,4.68202674" id="Fill-765" fill="#00A7CF"></path>
                                <path d="M8.65666511,20.2195561 L0.363334895,20.2195561 C0.160543326,20.2195561 0,19.9450214 0,19.6064759 C0,19.2679305 0.160543326,18.994107 0.363334895,18.994107 L8.65666511,18.994107 C8.85523185,18.994107 9.02,19.2679305 9.02,19.6064759 C9.02,19.9450214 8.85523185,20.2195561 8.65666511,20.2195561" id="Fill-766" fill="#2085B0"></path>
                            </g>
                        </g>
                        <g id="Group-14" fill="#00A7CF" opacity="0.0984488225">
                            <circle id="Oval-2" cx="15" cy="15" r="15"></circle>
                        </g>
                    </g>
                </g>
            </g>
        </g>
    </g>
</svg>