<?xml version="1.0" encoding="UTF-8"?>
<svg width="91px" height="48px" viewBox="0 0 91 48" version="1.1" xmlns="http://www.w3.org/2000/svg" xmlns:xlink="http://www.w3.org/1999/xlink">
    <!-- Generator: Sketch 46.2 (44496) - http://www.bohemiancoding.com/sketch -->
    <title>Cisco Copy</title>
    <desc>Created with Sketch.</desc>
    <defs>
        <rect id="path-1" x="0" y="0" width="89.7647059" height="47.5359348"></rect>
    </defs>
    <g id="All-Pages-Together_spacing-innacurate-to-accomodate-visuals" stroke="none" stroke-width="1" fill="none" fill-rule="evenodd">
        <g id="Landing-Page_Wireframe" transform="translate(-1190.000000, -647.000000)">
            <g id="Hero-#2" transform="translate(0.000000, 72.000000)">
                <g id="Logo-bar_grayed-out" transform="translate(135.000000, 570.000000)">
                    <g id="Cisco-Copy" transform="translate(1030.000000, 0.000000)">
                        <g id="Cisco" transform="translate(25.529412, 4.941176)">
                            <mask id="mask-2" fill="white">
                                <use xlink:href="#path-1"></use>
                            </mask>
                            <g id="Mask"></g>
                            <g id="Cisco_logo" mask="url(#mask-2)" fill-rule="nonzero" fill="#AEB5BD">
                                <g transform="translate(-0.529412, 0.058824)" id="path53690">
                                    <path d="M91,33.1128113 C91,34.2035575 90.1135926,35.087707 89.0253843,35.087707 C87.9342269,35.087707 87.0478194,34.2035575 87.0478194,33.1128113 L87.0478194,28.9585313 C87.0478194,27.8618824 87.9342269,26.9773113 89.0253843,26.9773113 C90.1135926,26.9773113 91,27.8618824 91,28.9585313 L91,33.1128113 Z M80.1360324,38.5652774 C80.1360324,39.6556019 79.2521528,40.5414379 78.1365602,40.5414379 C77.0454028,40.5414379 76.1615231,39.6556019 76.1615231,38.5652774 L76.1615231,28.9585313 C76.1615231,27.8618824 77.0454028,26.9773113 78.1365602,26.9773113 C79.2521528,26.9773113 80.1360324,27.8618824 80.1360324,28.9585313 L80.1360324,38.5652774 Z M69.2497361,46.0246827 C69.2497361,47.1154289 68.3658565,48 67.2751204,48 C66.183963,48 65.3000833,47.1154289 65.3000833,46.0246827 L65.3000833,25.0108481 C65.3000833,23.9137775 66.183963,23.029628 67.2751204,23.029628 C68.3658565,23.029628 69.2497361,23.9137775 69.2497361,25.0108481 L69.2497361,46.0246827 Z M58.360912,38.5652774 C58.360912,39.6556019 57.4774537,40.5414379 56.3862963,40.5414379 C55.2976667,40.5414379 54.4112593,39.6556019 54.4112593,38.5652774 L54.4112593,28.9585313 C54.4112593,27.8618824 55.2976667,26.9773113 56.3862963,26.9773113 C57.4774537,26.9773113 58.360912,27.8618824 58.360912,28.9585313 L58.360912,38.5652774 Z M47.4746157,33.1128113 C47.4746157,34.2035575 46.5911574,35.087707 45.5063194,35.087707 C44.415162,35.087707 43.5253843,34.2035575 43.5253843,33.1128113 L43.5253843,28.9585313 C43.5253843,27.8618824 44.415162,26.9773113 45.5063194,26.9773113 C46.5911574,26.9773113 47.4746157,27.8618824 47.4746157,28.9585313 L47.4746157,33.1128113 Z M36.6060139,38.5652774 C36.6060139,39.6556019 35.7158148,40.5414379 34.6250787,40.5414379 C33.5339213,40.5414379 32.6437222,39.6556019 32.6437222,38.5652774 L32.6437222,28.9585313 C32.6437222,27.8618824 33.5339213,26.9773113 34.6250787,26.9773113 C35.7158148,26.9773113 36.6060139,27.8618824 36.6060139,28.9585313 L36.6060139,38.5652774 Z M25.7247731,46.0246827 C25.7247731,47.1154289 24.8345741,48 23.7434167,48 C22.6526806,48 21.7624815,47.1154289 21.7624815,46.0246827 L21.7624815,25.0108481 C21.7624815,23.9137775 22.6526806,23.029628 23.7434167,23.029628 C24.8345741,23.029628 25.7247731,23.9137775 25.7247731,25.0108481 L25.7247731,46.0246827 Z M14.8431111,38.5652774 C14.8431111,39.6556019 13.9533333,40.5414379 12.8621759,40.5414379 C11.7710185,40.5414379 10.8812407,39.6556019 10.8812407,38.5652774 L10.8812407,28.9585313 C10.8812407,27.8618824 11.7710185,26.9773113 12.8621759,26.9773113 C13.9533333,26.9773113 14.8431111,27.8618824 14.8431111,28.9585313 L14.8431111,38.5652774 Z M3.96187037,33.1128113 C3.96187037,34.2035575 3.07209259,35.087707 1.98093519,35.087707 C0.891041667,35.087707 0,34.2035575 0,33.1128113 L0,28.9585313 C0,27.8618824 0.891041667,26.9773113 1.98093519,26.9773113 C3.07209259,26.9773113 3.96187037,27.8618824 3.96187037,28.9585313 L3.96187037,33.1128113 Z M44.8596296,15.8872853 C44.7408241,15.9197505 42.9128194,16.3915499 40.9702222,16.3915499 C37.2923056,16.3915499 35.0779722,14.4040054 35.0779722,11.4441917 C35.0779722,8.82420835 36.930412,7.51758971 39.1535926,6.81473934 C39.4000509,6.73336554 39.7632083,6.61952655 40.0050324,6.53941763 C40.9946574,6.22783609 41.784588,5.76489086 41.784588,4.96295841 C41.784588,4.06616013 40.8716389,3.48558127 38.886912,3.48558127 C37.1427454,3.48558127 35.4706204,3.98478633 35.1184167,4.0737494 L35.1184167,0.432166542 C35.3147407,0.390425579 37.3019954,0 39.4249074,0 C42.478463,0 45.9714306,1.33528921 45.9714306,5.31037815 C45.9714306,7.23847336 44.7918009,9.01351838 42.2020926,9.83737538 L41.1012454,10.1881681 C40.4444444,10.3956081 39.2719769,10.7316439 39.2719769,11.6950591 C39.2719769,12.4560938 40.1406898,12.9919803 41.7403519,12.9919803 C43.1205185,12.9919803 44.8002269,12.5277702 44.8596296,12.5092187 L44.8596296,15.8872853 L44.8596296,15.8872853 Z M78.5806065,8.19556414 C78.5806065,5.89306513 76.8183241,4.03032193 74.453588,4.03032193 C72.0863241,4.03032193 70.3286759,5.89306513 70.3286759,8.19556414 C70.3286759,10.4934253 72.0863241,12.3570117 74.453588,12.3570117 C76.8183241,12.3570117 78.5806065,10.4934253 78.5806065,8.19556414 L78.5806065,8.19556414 Z M74.453588,16.3864904 C69.5901435,16.3864904 66.1022315,12.7153937 66.1022315,8.19556414 C66.1022315,3.66856691 69.5901435,1.95399252e-14 74.453588,1.95399252e-14 C79.3166111,1.95399252e-14 82.8095787,3.66856691 82.8095787,8.19556414 C82.8095787,12.7153937 79.3166111,16.3864904 74.453588,16.3864904 L74.453588,16.3864904 Z M20.251713,15.8194036 C19.8767593,15.9307128 18.4906944,16.3864904 16.6133981,16.3864904 C11.757537,16.3864904 8.19294907,12.9215688 8.19294907,8.19556414 C8.19294907,3.0968422 12.1278565,1.95399252e-14 16.6133981,1.95399252e-14 C18.3954815,1.95399252e-14 19.7558472,0.422469147 20.251713,0.563292196 L20.251713,4.81117309 C20.0802454,4.71588563 18.775912,3.9712943 16.8994583,3.9712943 C14.2410787,3.9712943 12.5264028,5.8437349 12.5264028,8.19556414 C12.5264028,10.6190698 14.3152269,12.416461 16.8994583,12.416461 C18.8079306,12.416461 20.0911991,11.6554262 20.251713,11.5715227 L20.251713,15.8194036 L20.251713,15.8194036 Z M61.9010648,15.8194036 C61.523162,15.9307128 60.1358333,16.3864904 58.2648565,16.3864904 C53.4018333,16.3864904 49.8372454,12.9215688 49.8372454,8.19556414 C49.8372454,3.0968422 53.776787,1.95399252e-14 58.2648565,1.95399252e-14 C60.03725,1.95399252e-14 61.3997222,0.422469147 61.9010648,0.563292196 L61.9010648,4.81117309 C61.7258056,4.71588563 60.419787,3.9712943 58.5437546,3.9712943 C55.8874815,3.9712943 54.1744907,5.8437349 54.1744907,8.19556414 C54.1744907,10.6190698 55.9641574,12.416461 58.5437546,12.416461 C60.4518056,12.416461 61.7380231,11.6554262 61.9010648,11.5715227 L61.9010648,15.8194036 L61.9010648,15.8194036 Z M29.727088,0.281646098 L25.7365694,0.281646098 L25.7365694,16.1061092 L29.727088,16.1061092 L29.727088,0.281646098 Z" transform="translate(45.500000, 24.000000) scale(-1, 1) rotate(-180.000000) translate(-45.500000, -24.000000) "></path>
                                </g>
                            </g>
                        </g>
                    </g>
                </g>
            </g>
        </g>
    </g>
</svg>