<?xml version="1.0" encoding="UTF-8"?>
<svg width="30px" height="30px" viewBox="0 0 30 30" version="1.1" xmlns="http://www.w3.org/2000/svg" xmlns:xlink="http://www.w3.org/1999/xlink">
    <!-- Generator: Sketch 46.2 (44496) - http://www.bohemiancoding.com/sketch -->
    <title>Group 11</title>
    <desc>Created with Sketch.</desc>
    <defs></defs>
    <g id="Nav-Design" stroke="none" stroke-width="1" fill="none" fill-rule="evenodd">
        <g id="Nav_Product_resting_NEW_USE-ME!" transform="translate(-337.000000, -313.000000)">
            <g id="Group-11" transform="translate(337.000000, 313.000000)">
                <g id="Insights-Copy" fill="#D9F5F2">
                    <circle id="Oval" cx="15" cy="15" r="15"></circle>
                </g>
                <g id="Group-6" transform="translate(5.400000, 7.800000)">
                    <path d="M13.963601,11.9007 C13.831601,11.9007 13.699601,11.8503 13.598801,11.7495 C13.397801,11.5479 13.397801,11.2221 13.598801,11.0205 C14.938001,9.6819 16.219001,5.9625 13.283801,3.0267 C13.082801,2.8257 13.082801,2.4999 13.283801,2.2983 C13.485401,2.0967 13.811801,2.0967 14.012801,2.2983 C17.463401,5.7495 15.920201,10.1565 14.327801,11.7495 C14.227001,11.8503 14.095001,11.9007 13.963601,11.9007" id="Fill-998" fill="#00BAA7"></path>
                    <path d="M16.268201,14.1141 C16.136201,14.1141 16.004801,14.0637 15.904001,13.9629 C15.702401,13.7613 15.702401,13.4355 15.904001,13.2339 C17.975201,11.1633 19.963001,5.4129 15.430601,0.8799 C15.229601,0.6783 15.229601,0.3525 15.430601,0.1515 C15.632201,-0.0489 15.958001,-0.0489 16.159601,0.1515 C21.206801,5.1987 18.958001,11.6379 16.632401,13.9629 C16.532201,14.0637 16.399601,14.1141 16.268201,14.1141" id="Fill-999" fill="#00BAA7"></path>
                    <path d="M9.59620096,6.0471 C9.32680096,6.0471 9.07240096,6.1515 8.88160096,6.3423 C8.69080096,6.5331 8.58520096,6.7875 8.58520096,7.0569 C8.58520096,7.3269 8.69020096,7.5807 8.88100096,7.7721 C9.26320096,8.1537 9.92860096,8.1537 10.310801,7.7721 C10.502201,7.5795 10.607201,7.3269 10.607201,7.0569 C10.607201,6.7875 10.502201,6.5331 10.311401,6.3423 C10.120001,6.1515 9.86620096,6.0471 9.59620096,6.0471 Z M9.59620096,9.0987 C9.05080096,9.0987 8.53840096,8.8863 8.15200096,8.4999 C7.76680096,8.1141 7.55440096,7.6017 7.55440096,7.0569 C7.55500096,6.5109 7.76740096,5.9991 8.15380096,5.6133 C8.92360096,4.8435 10.268201,4.8423 11.039801,5.6133 C11.425601,5.9991 11.638001,6.5109 11.638001,7.0569 C11.638001,7.6017 11.425601,8.1153 11.039201,8.5011 C10.654601,8.8863 10.142201,9.0987 9.59620096,9.0987 L9.59620096,9.0987 Z" id="Fill-1000" fill="#009282"></path>
                    <path d="M5.55160096,11.9673 C5.41900096,11.9673 5.28820096,11.9169 5.18740096,11.8161 C3.29560096,9.9261 3.02200096,7.8609 3.12580096,6.4629 C3.24100096,4.8963 3.91000096,3.3267 4.87060096,2.3661 C5.07220096,2.1645 5.39800096,2.1645 5.59960096,2.3661 C5.80120096,2.5677 5.80120096,2.8935 5.59960096,3.0951 C5.00560096,3.6879 4.27120096,4.9467 4.15360096,6.5391 C4.06600096,7.7229 4.30060096,9.4737 5.91580096,11.0883 C6.11740096,11.2887 6.11740096,11.6157 5.91580096,11.8161 C5.81560096,11.9169 5.68300096,11.9673 5.55160096,11.9673" id="Fill-1001" fill="#00BAA7"></path>
                    <path d="M3.40480096,14.1141 C3.27280096,14.1141 3.14140096,14.0637 3.04060096,13.9629 C-2.00719904,8.9157 0.241000957,2.4765 2.56660096,0.1503 C2.76760096,-0.0501 3.09340096,-0.0501 3.29440096,0.1503 C3.49600096,0.3519 3.49600096,0.6771 3.29440096,0.8787 C1.22320096,2.9511 -0.763999043,8.7015 3.76900096,13.2339 C3.97000096,13.4355 3.97000096,13.7613 3.76900096,13.9629 C3.66820096,14.0637 3.53680096,14.1141 3.40480096,14.1141" id="Fill-1002" fill="#00BAA7"></path>
                </g>
            </g>
        </g>
    </g>
</svg>