<?xml version="1.0" encoding="UTF-8"?>
<svg width="30px" height="30px" viewBox="0 0 30 30" version="1.1" xmlns="http://www.w3.org/2000/svg" xmlns:xlink="http://www.w3.org/1999/xlink">
    <!-- Generator: Sketch 46.2 (44496) - http://www.bohemiancoding.com/sketch -->
    <title>Group 25</title>
    <desc>Created with Sketch.</desc>
    <defs></defs>
    <g id="Nav-Design" stroke="none" stroke-width="1" fill="none" fill-rule="evenodd">
        <g id="Nav_resources_resting" transform="translate(-730.000000, -270.000000)">
            <g id="Group-12" transform="translate(730.000000, 108.000000)">
                <g id="Group-7" transform="translate(0.000000, 162.000000)">
                    <g id="Group-25">
                        <g id="Group-14-Copy-3" fill="#00A7CF" opacity="0.0984488225">
                            <circle id="Oval-2" cx="15" cy="15" r="15"></circle>
                        </g>
                        <g id="Group-21" transform="translate(6.000000, 5.000000)">
                            <path d="M13.8534039,1.48321638 C13.7233726,1.48321638 13.5927476,1.43334138 13.4935914,1.33359138 C13.2946851,1.13409138 13.2946851,0.811685135 13.4935914,0.613372635 C14.2369664,-0.128814865 15.3633101,-0.208971115 16.0087164,0.435841385 C16.2076226,0.634153885 16.2076226,0.956560135 16.0087164,1.15487263 C15.8098101,1.35437263 15.4879976,1.35437263 15.2890914,1.15487263 C15.0444664,0.911435135 14.5534351,0.995153885 14.2132164,1.33359138 C14.1140601,1.43334138 13.9840289,1.48321638 13.8534039,1.48321638" id="Fill-109" fill="#00A7CF"></path>
                            <path d="M11.9130289,10.2226226 C11.6333726,10.2226226 11.4065601,9.99759138 11.4035914,9.71793513 C11.4012164,9.43709138 11.6262476,9.20790388 11.9076851,9.20434138 L13.2549039,9.19127888 L17.6623101,4.78209138 C17.8612164,4.58377888 18.1830289,4.58377888 18.3819351,4.78209138 C18.5808414,4.98159138 18.5808414,5.30399763 18.3819351,5.50231013 L13.8272789,10.0575601 C13.7328726,10.1525601 13.6058101,10.2059976 13.4728101,10.2071851 L11.9177789,10.2226226 C11.9159976,10.2226226 11.9136226,10.2226226 11.9130289,10.2226226" id="Fill-110" fill="#00A7CF"></path>
                            <path d="M9.25540388,7.62259138 C9.25006013,7.62259138 9.24531013,7.62259138 9.24056013,7.62259138 C8.95912263,7.61427888 8.73765388,7.37974763 8.74537263,7.09949763 L8.78990388,5.51418513 C8.79406013,5.38415388 8.84749763,5.26124763 8.93952888,5.16862263 L13.4935914,0.613372635 C13.6924976,0.415060135 14.0143101,0.415060135 14.2132164,0.613372635 C14.4121226,0.812872635 14.4121226,1.13409138 14.2132164,1.33359138 L9.80224763,5.74574763 L9.76365388,7.12859138 C9.75534138,7.40409138 9.52971638,7.62259138 9.25540388,7.62259138" id="Fill-111" fill="#00A7CF"></path>
                            <path d="M18.2014351,3.85702888 C18.0708101,3.85702888 17.9407789,3.80715388 17.8410289,3.70740388 L15.2890914,1.15487263 C15.0901851,0.956560135 15.0901851,0.634153885 15.2890914,0.435841385 C15.4879976,0.236341385 15.8098101,0.236341385 16.0087164,0.435841385 L18.5612476,2.98718513 C18.7601539,3.18668513 18.7601539,3.50909138 18.5612476,3.70740388 C18.4614976,3.80715388 18.3314664,3.85702888 18.2014351,3.85702888" id="Fill-112" fill="#00A7CF"></path>
                            <path d="M4.08502888,19.0000289 C3.66227888,19.0000289 3.26981013,18.8444664 2.98659138,18.5612476 C2.78768513,18.3629351 2.78768513,18.0405289 2.98659138,17.8428101 C3.18549763,17.6433101 3.50790388,17.6433101 3.70681013,17.8428101 C3.84990388,17.9841226 4.04821638,17.9888726 4.15746638,17.9781851 C4.37656013,17.9562164 4.60396638,17.8416226 4.78268513,17.6629039 C4.98159138,17.4645914 5.30399763,17.4645914 5.50231013,17.6629039 C5.70121638,17.8612164 5.70121638,18.1848101 5.50231013,18.3831226 C5.15615388,18.7298726 4.71381013,18.9454039 4.25781013,18.9905289 C4.19962263,18.9964664 4.14202888,19.0000289 4.08502888,19.0000289" id="Fill-114" fill="#00A7CF"></path>
                            <path d="M0.973778885,14.3634351 C0.843153885,14.3634351 0.713122635,14.3135601 0.613372635,14.2149976 C0.414466385,14.0154976 0.414466385,13.6930914 0.613372635,13.4947789 L5.16802888,8.93952888 C5.26302888,8.84571638 5.39009138,8.79227888 5.52309138,8.79109138 L7.07812263,8.77624763 C7.07931013,8.77624763 7.08109138,8.77624763 7.08287263,8.77624763 C7.36134138,8.77624763 7.58934138,9.00127888 7.59231013,9.27974763 C7.59409138,9.56118513 7.36846638,9.79215388 7.08762263,9.79452888 L5.74099763,9.80699763 L1.33299763,14.2149976 C1.23384138,14.3135601 1.10381013,14.3634351 0.973778885,14.3634351" id="Fill-115" fill="#00A7CF"></path>
                            <path d="M5.14249763,18.5327476 C5.01246638,18.5327476 4.88243513,18.4828726 4.78268513,18.3831226 C4.58377888,18.1848101 4.58377888,17.8624039 4.78268513,17.6629039 L9.19365388,13.2513414 L9.23224763,11.8690914 C9.24056013,11.5882476 9.48874763,11.3863726 9.75534138,11.3739039 C10.0367789,11.3822164 10.2582476,11.6173414 10.2505289,11.8981851 L10.2059976,13.4834976 C10.2018414,13.6129351 10.1484039,13.7358414 10.0563726,13.8290601 L5.50231013,18.3831226 C5.40315388,18.4828726 5.27252888,18.5327476 5.14249763,18.5327476" id="Fill-116" fill="#00A7CF"></path>
                            <path d="M3.34640388,18.7108726 C3.21637263,18.7108726 3.08634138,18.6609976 2.98659138,18.5612476 L0.435841385,16.0104976 C0.236935135,15.8109976 0.236935135,15.4885914 0.435841385,15.2902789 C0.634153885,15.0907789 0.956560135,15.0907789 1.15546638,15.2902789 L3.70681013,17.8428101 C3.90571638,18.0405289 3.90571638,18.3629351 3.70681013,18.5612476 C3.60706013,18.6609976 3.47702888,18.7108726 3.34640388,18.7108726" id="Fill-117" fill="#00A7CF"></path>
                            <path d="M0.795653885,16.1589351 C0.665028885,16.1589351 0.534997635,16.1090601 0.435841385,16.0104976 C-0.208971115,15.3656851 -0.128814865,14.2369664 0.613372635,13.4947789 C0.812278885,13.2964664 1.13468513,13.2964664 1.33299763,13.4947789 C1.53190388,13.6930914 1.53190388,14.0154976 1.33299763,14.2149976 C0.993966385,14.5534351 0.912622635,15.0468414 1.15546638,15.2902789 C1.35437263,15.4885914 1.35437263,15.8109976 1.15546638,16.0104976 C1.05571638,16.1090601 0.925685135,16.1589351 0.795653885,16.1589351" id="Fill-118" fill="#00A7CF"></path>
                            <path d="M5.72793513,13.7791851 C5.59790388,13.7791851 5.46727888,13.7293101 5.36752888,13.6295601 C5.16862263,13.4312476 5.16862263,13.1088414 5.36752888,12.9093414 L12.8933101,5.38415388 C13.0922164,5.18465388 13.4140289,5.18465388 13.6129351,5.38415388 C13.8118414,5.58246638 13.8118414,5.90487263 13.6129351,6.10318513 L6.08774763,13.6295601 C5.98859138,13.7293101 5.85796638,13.7791851 5.72793513,13.7791851" id="Fill-119" fill="#2085B0"></path>
                        </g>
                    </g>
                </g>
            </g>
        </g>
    </g>
</svg>