<?xml version="1.0" encoding="UTF-8"?>
<svg width="30px" height="30px" viewBox="0 0 30 30" version="1.1" xmlns="http://www.w3.org/2000/svg" xmlns:xlink="http://www.w3.org/1999/xlink">
    <!-- Generator: Sketch 46.2 (44496) - http://www.bohemiancoding.com/sketch -->
    <title>Group 24</title>
    <desc>Created with Sketch.</desc>
    <defs></defs>
    <g id="Nav-Design" stroke="none" stroke-width="1" fill="none" fill-rule="evenodd">
        <g id="Nav_resources_resting" transform="translate(-730.000000, -216.000000)">
            <g id="Group-12" transform="translate(730.000000, 108.000000)">
                <g id="Group-6" transform="translate(0.000000, 108.000000)">
                    <g id="Group-24">
                        <g id="Group-14-Copy-2" fill="#00A7CF" opacity="0.0984488225">
                            <circle id="Oval-2" cx="15" cy="15" r="15"></circle>
                        </g>
                        <g id="Group-8" transform="translate(7.000000, 5.000000)">
                            <path d="M13.2180057,15.6124444 C12.8268946,16.221037 12.3409687,16.7271111 11.7780057,17.1122963 C10.9246724,17.6936296 10.0417094,17.8903704 9.06985755,17.7143704 C8.76763533,17.6598519 8.54837607,17.5579259 8.38837607,17.3973333 C8.27578348,17.2835556 8.1217094,17.2237037 7.9617094,17.2237037 C7.90245014,17.2237037 7.83726496,17.2325926 7.7780057,17.2539259 C7.68319088,17.2811852 7.60022792,17.3345185 7.52911681,17.4020741 C7.35726496,17.570963 7.12022792,17.6740741 6.78837607,17.725037 C5.68022792,17.9004444 4.69059829,17.6053333 3.76022792,16.816 C3.14393162,16.2939259 2.63430199,15.6219259 2.19578348,14.7608889 C1.6980057,13.7736296 1.3780057,12.6945185 1.24763533,11.5555556 C1.14689459,10.6518519 1.17652422,9.83111111 1.34245014,9.04533333 C1.49059829,8.336 1.73948718,7.75466667 2.09504274,7.26874074 C2.61059829,6.55822222 3.2980057,6.14044444 4.19282051,5.99703704 C4.73207977,5.90874074 5.18837607,5.91703704 5.62096866,6.01896296 C6.44467236,6.21333333 7.02541311,6.66548148 7.39282051,7.40325926 C7.39282051,7.40444444 7.43430199,7.48266667 7.43430199,7.48385185 C7.46393162,7.53362963 7.49356125,7.57748148 7.53504274,7.616 C7.55282051,7.63555556 7.57652422,7.64740741 7.59430199,7.66340741 C7.62393162,7.68177778 7.64763533,7.70251852 7.67726496,7.71674074 C7.76022792,7.76414815 7.85504274,7.7997037 7.9617094,7.7997037 C8.19282051,7.7997037 8.38837607,7.66459259 8.48319088,7.47259259 C8.49504274,7.45718519 8.50689459,7.44474074 8.51282051,7.42933333 C8.54245014,7.37066667 8.57207977,7.31614815 8.59578348,7.26992593 C9.00467236,6.56414815 9.58541311,6.14933333 10.391339,6.00237037 C11.2683761,5.84177778 12.0920798,5.968 12.8387464,6.37985185 C13.3898575,6.68444444 13.8165242,7.14725926 14.1483761,7.79437037 C14.4209687,8.33837037 14.5987464,8.9357037 14.6639316,9.56740741 C14.8950427,11.7374815 14.4091168,13.7712593 13.2180057,15.6124444 Z M15.2031909,7.25511111 C14.7705983,6.40059259 14.1661538,5.75703704 13.4135613,5.33925926 C12.4239316,4.79525926 11.3276353,4.624 10.1720798,4.83377778 C9.57948718,4.94222222 9.06985755,5.17155556 8.61948718,5.49807407 C8.80911681,3.26637037 9.43726496,1.18874074 11.1439316,1.18874074 C11.4698575,1.18874074 11.7365242,0.923851852 11.7365242,0.594962963 C11.7365242,0.266666667 11.4698575,0 11.1439316,0 C9.59133903,0 7.77207977,1.02933333 7.42837607,5.59644444 C6.99578348,5.25274074 6.48615385,5.00266667 5.89356125,4.86222222 C5.31282051,4.72474074 4.69652422,4.7122963 4.00319088,4.82311111 C2.80022792,5.01748148 1.83430199,5.60414815 1.13504274,6.5682963 C0.678746439,7.1922963 0.364672365,7.92177778 0.175042735,8.79881481 C-0.0145868946,9.712 -0.0501424501,10.6565926 0.0683760684,11.6924444 C0.216524217,12.9700741 0.572079772,14.1819259 1.13504274,15.2965926 C1.64467236,16.3034074 2.24911681,17.0974815 2.98985755,17.7226667 C4.17504274,18.7294815 5.52022792,19.1288889 6.97207977,18.8995556 C7.35726496,18.8391111 7.68319088,18.7271111 7.9617094,18.5605926 C8.21652422,18.7152593 8.51282051,18.8219259 8.85652422,18.8847407 C9.15282051,18.9362963 9.44911681,18.962963 9.73356125,18.962963 C10.6876353,18.962963 11.6002279,18.6702222 12.4476353,18.093037 C13.1409687,17.6183704 13.7394872,16.9991111 14.2194872,16.256 C15.5587464,14.1831111 16.1098575,11.8891852 15.8491168,9.44237037 C15.7661538,8.6642963 15.5468946,7.9282963 15.2031909,7.25511111 Z" id="Fill-1804-Copy" fill="#009AC9"></path>
                            <path d="M8.59356406,5.59644444 C8.78319369,3.36474074 9.4162963,1.18874074 11.122963,1.18874074 C11.4488889,1.18874074 11.7155556,0.923851852 11.7155556,0.594962963 C11.7155556,0.266666667 11.4488889,0 11.122963,0 C9.57037037,0 7.75111111,1.02933333 7.40740741,5.59644444 C7.56097409,5.57298297 7.75395396,6.45048925 7.96249262,6.45861879 C8.21066067,6.46829322 8.47210218,5.61056643 8.59356406,5.59644444 Z" id="Fill-1804-Copy-2" fill="#2085B0"></path>
                        </g>
                    </g>
                </g>
            </g>
        </g>
    </g>
</svg>