<?xml version="1.0" encoding="UTF-8"?>
<svg width="130px" height="28px" viewBox="0 0 130 28" version="1.1" xmlns="http://www.w3.org/2000/svg" xmlns:xlink="http://www.w3.org/1999/xlink">
    <!-- Generator: Sketch 46.2 (44496) - http://www.bohemiancoding.com/sketch -->
    <title>Microsoft Copy</title>
    <desc>Created with Sketch.</desc>
    <defs></defs>
    <g id="All-Pages-Together_spacing-innacurate-to-accomodate-visuals" stroke="none" stroke-width="1" fill="none" fill-rule="evenodd">
        <g id="Landing-Page_Wireframe" transform="translate(-141.000000, -658.000000)" fill-rule="nonzero" fill="#AEB5BD">
            <g id="Hero-#2" transform="translate(0.000000, 72.000000)">
                <g id="Logo-bar_grayed-out" transform="translate(135.000000, 570.000000)">
                    <g id="Microsoft-Copy">
                        <g id="Microsoft" transform="translate(6.000000, 16.000000)">
                            <g id="Group" transform="translate(35.748539, 4.281262)">
                                <path d="M9.88971562,11.6236268 L9.11908843,13.8070705 L9.0548695,13.8070705 C8.92643163,13.3147254 8.69096221,12.5655045 8.30564862,11.6664394 L4.17423062,1.28437865 L0.128437865,1.28437865 L0.128437865,17.831457 L2.80422672,17.831457 L2.80422672,7.62064667 C2.80422672,6.97845734 2.80422672,6.25064277 2.78282041,5.35157772 C2.7614141,4.90204519 2.71860148,4.55954422 2.69719517,4.30266848 L2.7614141,4.30266848 C2.88985197,4.94485781 3.03969614,5.41579665 3.1467277,5.715485 L8.11299182,17.7886443 L9.99674718,17.7886443 L14.9201987,5.60845345 C15.0272302,5.33017141 15.1342618,4.77360732 15.2412933,4.30266848 L15.3055123,4.30266848 C15.2412933,5.5228282 15.1984807,6.61455006 15.1770744,7.2781457 L15.1770744,17.767238 L18.0241138,17.767238 L18.0241138,1.24156603 L14.1281652,1.24156603 L9.88971562,11.6236268 L9.88971562,11.6236268 Z M20.7213089,5.9081418 L23.5041293,5.9081418 L23.5041293,17.767238 L20.7213089,17.767238 L20.7213089,5.9081418 Z M22.1341254,0.899065056 C21.6631866,0.899065056 21.277873,1.07031554 20.9567783,1.3700039 C20.6356837,1.66969225 20.4644332,2.05500584 20.4644332,2.52594468 C20.4644332,2.97547721 20.6356837,3.36079081 20.9567783,3.66047916 C21.277873,3.96016751 21.6631866,4.11001169 22.1341254,4.11001169 C22.6050643,4.11001169 23.0117842,3.9387612 23.3114725,3.66047916 C23.6325672,3.36079081 23.8038177,2.97547721 23.8038177,2.52594468 C23.8038177,2.07641215 23.6325672,1.69109856 23.3114725,1.3700039 C23.0331905,1.07031554 22.6264706,0.899065056 22.1341254,0.899065056 L22.1341254,0.899065056 Z M33.3724386,5.80111025 C32.8586872,5.69407869 32.3235294,5.62985976 31.809778,5.62985976 C30.5468056,5.62985976 29.3908648,5.9081418 28.4275808,6.46470588 C27.4642968,7.02126996 26.6936697,7.79189716 26.2013245,8.75518115 C25.687573,9.73987145 25.4306973,10.8744059 25.4306973,12.1801909 C25.4306973,13.3147254 25.687573,14.320822 26.1799182,15.2412933 C26.6722633,16.1403584 27.3572653,16.868173 28.2777367,17.3605181 C29.1553954,17.8528633 30.1828983,18.109739 31.3388391,18.109739 C32.6660304,18.109739 33.8005649,17.831457 34.6996299,17.3177055 L34.7210362,17.2962992 L34.7210362,14.7275419 L34.6140047,14.8131671 C34.2072848,15.1128555 33.7363459,15.3697312 33.2654071,15.5195754 C32.7730619,15.6908259 32.3235294,15.7764511 31.9382158,15.7764511 C30.8250877,15.7764511 29.9474289,15.4553564 29.3266459,14.7489482 C28.6844566,14.0639462 28.3633619,13.1220686 28.3633619,11.9447215 C28.3633619,10.7245617 28.6844566,9.76127776 29.3480522,9.0548695 C30.0116478,8.34846124 30.8893066,7.98455395 31.9596221,7.98455395 C32.8586872,7.98455395 33.7791586,8.28424231 34.6140047,8.88361901 L34.7210362,8.96924425 L34.7210362,6.25064277 L34.6996299,6.22923646 C34.3357226,6.07939229 33.9290027,5.9081418 33.3724386,5.80111025 L33.3724386,5.80111025 Z M42.555746,5.715485 C41.8707441,5.715485 41.2285547,5.92954811 40.6719907,6.37908064 C40.2010518,6.76439423 39.8799571,7.32095832 39.6016751,7.98455395 L39.5802688,7.98455395 L39.5802688,5.9081418 L36.7974484,5.9081418 L36.7974484,17.767238 L39.5802688,17.767238 L39.5802688,11.709252 C39.5802688,10.6817491 39.7943319,9.82549669 40.2652707,9.20471367 C40.7362096,8.56252435 41.3355863,8.24142968 42.0634009,8.24142968 C42.3202766,8.24142968 42.5771523,8.30564862 42.898247,8.34846124 C43.1979353,8.43408648 43.4119984,8.51971173 43.5618426,8.62674328 L43.6688742,8.71236852 L43.6688742,5.92954811 L43.6046552,5.9081418 C43.4119984,5.77970393 43.0266848,5.715485 42.555746,5.715485 L42.555746,5.715485 Z M50.1335801,5.65126607 C48.1856058,5.65126607 46.6229451,6.22923646 45.5312232,7.36377094 C44.4180951,8.49830541 43.8829373,10.0609661 43.8829373,12.0303467 C43.8829373,13.8712894 44.4395014,15.3697312 45.5098169,16.4614531 C46.5801325,17.5317686 48.0357616,18.0883327 49.855298,18.0883327 C51.7604597,18.0883327 53.2803078,17.5103623 54.3720296,16.3544215 C55.4851578,15.1984807 56.0203155,13.6572263 56.0203155,11.7520647 C56.0203155,9.86830931 55.5065641,8.36986755 54.4576549,7.2781457 C53.4515582,6.18642384 51.9745228,5.65126607 50.1335801,5.65126607 L50.1335801,5.65126607 Z M52.3598364,14.7703545 C51.8460849,15.4339501 51.0326451,15.7550448 50.0265485,15.7550448 C49.0204519,15.7550448 48.2070121,15.4339501 47.6290417,14.7275419 C47.0510713,14.0639462 46.7727892,13.1006623 46.7727892,11.8805025 C46.7727892,10.6175302 47.0724776,9.6542462 47.6290417,8.96924425 C48.2070121,8.28424231 48.9990456,7.94174133 50.0051422,7.94174133 C50.9898325,7.94174133 51.7604597,8.262836 52.3170238,8.92643163 C52.8735878,9.59002727 53.1732762,10.5533113 53.1732762,11.8162836 C53.1304636,13.1006623 52.8949942,14.1067589 52.3598364,14.7703545 L52.3598364,14.7703545 Z M62.2281457,10.8315933 C61.3504869,10.467686 60.7939229,10.189404 60.5370471,9.95393455 C60.322984,9.73987145 60.2159525,9.44018309 60.2159525,9.0548695 C60.2159525,8.73377483 60.3443903,8.41268017 60.665485,8.19861706 C60.9865797,7.98455395 61.3504869,7.8775224 61.8856447,7.8775224 C62.3565836,7.8775224 62.8489287,7.96314764 63.3198675,8.09158551 C63.7908064,8.22002337 64.2189326,8.41268017 64.5614336,8.6695559 L64.6684651,8.75518115 L64.6684651,6.14361122 L64.6042462,6.12220491 C64.2831515,5.99376704 63.8550253,5.86532918 63.3412739,5.75829762 C62.8275224,5.67267238 62.3565836,5.62985976 61.97127,5.62985976 C60.6440787,5.62985976 59.5523568,5.95095442 58.6961044,6.65736268 C57.839852,7.32095832 57.4331321,8.22002337 57.4331321,9.26893261 C57.4331321,9.82549669 57.5187573,10.3178418 57.7114141,10.7245617 C57.9040709,11.1312817 58.1823529,11.5165952 58.5676665,11.8376899 C58.9529801,12.1373783 59.5095442,12.4798792 60.2801714,12.8009739 C60.9223607,13.0792559 61.4147059,13.293319 61.7143942,13.4645695 C62.0140826,13.63582 62.2067394,13.8284768 62.3565836,13.978321 C62.4636151,14.1495715 62.527834,14.3636346 62.527834,14.6419166 C62.527834,15.4339501 61.9284573,15.8192637 60.7082976,15.8192637 C60.2373588,15.8192637 59.7450136,15.7336385 59.1670432,15.5409817 C58.5890728,15.3483249 58.0539151,15.0700429 57.6043825,14.7489482 L57.497351,14.6633229 L57.497351,17.3819244 L57.5615699,17.4033307 C57.9682898,17.5959875 58.460635,17.7244254 59.0600117,17.8742696 C59.6593884,17.9813011 60.1945462,18.0669264 60.665485,18.0669264 C62.0997078,18.0669264 63.2770549,17.7458317 64.1119011,17.0394235 C64.9681535,16.3544215 65.417686,15.4767628 65.417686,14.3422283 C65.417686,13.5501948 65.2036229,12.8437865 64.7326841,12.3086287 C64.1119011,11.7948773 63.3412739,11.2597195 62.2281457,10.8315933 L62.2281457,10.8315933 Z M72.7600506,5.65126607 C70.8120764,5.65126607 69.2494157,6.22923646 68.1576938,7.36377094 C67.065972,8.49830541 66.5094079,10.0609661 66.5094079,12.0303467 C66.5094079,13.8712894 67.065972,15.3697312 68.1362875,16.4614531 C69.206603,17.5317686 70.6622322,18.0883327 72.4817686,18.0883327 C74.3869303,18.0883327 75.9067783,17.5103623 76.9985002,16.3544215 C78.1116284,15.1984807 78.6467861,13.6572263 78.6467861,11.7520647 C78.6467861,9.86830931 78.1330347,8.36986755 77.0841254,7.2781457 C76.0780288,6.18642384 74.6009934,5.65126607 72.7600506,5.65126607 L72.7600506,5.65126607 Z M74.9649007,14.7703545 C74.4511492,15.4339501 73.6377094,15.7550448 72.6316128,15.7550448 C71.6041099,15.7550448 70.8120764,15.4339501 70.234106,14.7275419 C69.6561356,14.0639462 69.3778535,13.1006623 69.3778535,11.8805025 C69.3778535,10.6175302 69.6775419,9.6542462 70.234106,8.96924425 C70.8120764,8.28424231 71.6041099,7.94174133 72.6102065,7.94174133 C73.5734905,7.94174133 74.365524,8.262836 74.922088,8.92643163 C75.4786521,9.59002727 75.7783405,10.5533113 75.7783405,11.8162836 C75.7783405,13.1006623 75.5000584,14.1067589 74.9649007,14.7703545 L74.9649007,14.7703545 Z" id="Shape"></path>
                                <path d="M93.5241722,8.19861706 L93.5241722,5.9081418 L90.7199455,5.9081418 L90.7199455,2.39750682 L90.6343202,2.41891313 L87.9799377,3.21094663 L87.9157187,3.23235294 L87.9157187,5.9081418 L83.7200818,5.9081418 L83.7200818,4.40970004 C83.7200818,3.72469809 83.8913323,3.18954032 84.1910206,2.84703935 C84.490709,2.50453837 84.9402415,2.33328788 85.4968056,2.33328788 C85.8821192,2.33328788 86.2888391,2.41891313 86.7383716,2.61156993 L86.8454032,2.67578886 L86.8454032,0.25687573 L86.7811843,0.23546942 C86.3958707,0.107031554 85.8821192,0.0214063109 85.2185236,0.0214063109 C84.3836774,0.0214063109 83.6558629,0.214063109 82.9922672,0.535157772 C82.3286716,0.899065056 81.8363265,1.39141021 81.4724192,2.05500584 C81.1085119,2.69719517 80.9158551,3.42500974 80.9158551,4.25985586 L80.9158551,5.9081418 L78.9678808,5.9081418 L78.9678808,8.17721075 L80.9158551,8.17721075 L80.9158551,17.767238 L83.7200818,17.767238 L83.7200818,8.19861706 L87.9157187,8.19861706 L87.9157187,14.2994157 C87.9157187,16.803954 89.0930658,18.0669264 91.44776,18.0669264 C91.8330736,18.0669264 92.2397935,18.0027074 92.6251071,17.9384885 C93.031827,17.8528633 93.3315154,17.7458317 93.5027659,17.6602065 L93.5241722,17.6388002 L93.5241722,15.3483249 L93.4171406,15.4339501 C93.2458901,15.5409817 93.096046,15.6266069 92.8391702,15.6908259 C92.6251071,15.7550448 92.4324503,15.7764511 92.2826062,15.7764511 C91.7260421,15.7764511 91.3407285,15.6480132 91.0624464,15.3269186 C90.8055707,15.0272302 90.6771328,14.5348851 90.6771328,13.8070705 L90.6771328,8.19861706 L93.5241722,8.19861706 L93.5241722,8.19861706 Z" id="Shape"></path>
                            </g>
                            <polygon id="Shape" points="0 0 13.1220686 0 13.1220686 13.1220686 0 13.1220686"></polygon>
                            <polygon id="Shape" points="14.4920725 0 27.614141 0 27.614141 13.1220686 14.4920725 13.1220686"></polygon>
                            <polygon id="Shape" points="0 14.4920725 13.1220686 14.4920725 13.1220686 27.614141 0 27.614141"></polygon>
                            <polygon id="Shape" points="14.4920725 14.4920725 27.614141 14.4920725 27.614141 27.614141 14.4920725 27.614141"></polygon>
                        </g>
                    </g>
                </g>
            </g>
        </g>
    </g>
</svg>