<?xml version="1.0" encoding="UTF-8"?>
<svg width="30px" height="30px" viewBox="0 0 30 30" version="1.1" xmlns="http://www.w3.org/2000/svg" xmlns:xlink="http://www.w3.org/1999/xlink">
    <!-- Generator: Sketch 46.2 (44496) - http://www.bohemiancoding.com/sketch -->
    <title>Group 26</title>
    <desc>Created with Sketch.</desc>
    <defs></defs>
    <g id="Nav-Design" stroke="none" stroke-width="1" fill="none" fill-rule="evenodd">
        <g id="Nav_resources_resting" transform="translate(-730.000000, -324.000000)">
            <g id="Group-12" transform="translate(730.000000, 108.000000)">
                <g id="Group-11" transform="translate(0.000000, 216.000000)">
                    <g id="Group-26">
                        <g id="Group-14-Copy-4" fill="#00A7CF" opacity="0.0984488225">
                            <circle id="Oval-2" cx="15" cy="15" r="15"></circle>
                        </g>
                        <g id="Group-4" transform="translate(6.000000, 3.000000)">
                            <path d="M14.8195652,6.82882609 C14.6421739,6.82882609 14.5017391,6.68765217 14.5017391,6.51173913 L14.5017391,4.70234783 L11.9369565,4.70234783 L11.9369565,6.51173913 C11.9369565,6.68765217 11.7965217,6.82882609 11.6191304,6.82882609 C11.4417391,6.82882609 11.3013043,6.68765217 11.3013043,6.51173913 L11.3013043,4.38526087 C11.3013043,4.2086087 11.4417391,4.06743478 11.6191304,4.06743478 L14.8195652,4.06743478 C14.9895652,4.06743478 15.1373913,4.2086087 15.1373913,4.38526087 L15.1373913,6.51173913 C15.1373913,6.68765217 14.9895652,6.82882609 14.8195652,6.82882609" id="Fill-561" fill="#2886AE"></path>
                            <path d="M14.2282609,4.70234783 C14.0508696,4.70234783 13.9104348,4.56117391 13.9104348,4.38526087 L13.9104348,0.597217391 C13.9104348,0.420565217 14.0508696,0.279391304 14.2282609,0.279391304 C14.3982609,0.279391304 14.5386957,0.420565217 14.5386957,0.597217391 L14.5386957,4.38526087 C14.5386957,4.56117391 14.3982609,4.70234783 14.2282609,4.70234783" id="Fill-562" fill="#2886AE"></path>
                            <path d="M1.72217391,20.9754031 L6.4526087,20.9754031 L6.4526087,13.4809712 L1.72217391,13.4809712 L1.72217391,20.9754031 Z M7.08086957,22.3125 L1.08652174,22.3125 C0.73173913,22.3125 0.450869565,22.0130339 0.450869565,21.6443405 L0.450869565,12.8128117 C0.450869565,12.4433405 0.73173913,12.1446522 1.08652174,12.1446522 L7.08086957,12.1446522 C7.43565217,12.1446522 7.71652174,12.4433405 7.71652174,12.8128117 L7.71652174,21.6443405 C7.71652174,22.0130339 7.43565217,22.3125 7.08086957,22.3125 L7.08086957,22.3125 Z" id="Fill-551" fill="#00A7CF"></path>
                            <path d="M7.08086957,22.3125 C6.73347826,22.3125 6.4526087,22.0534522 6.4526087,21.7345207 C6.4526087,21.4149163 6.73347826,21.1558685 7.08086957,21.1558685 L15.0117391,21.1558685 L15.0117391,7.03406415 L7.71652174,7.03406415 L7.71652174,14.0936206 C7.71652174,14.4145707 7.43565217,14.6729456 7.08086957,14.6729456 C6.73347826,14.6729456 6.4526087,14.4145707 6.4526087,14.0936206 L6.4526087,6.45473913 C6.4526087,6.13513473 6.73347826,5.87608696 7.08086957,5.87608696 L15.6473913,5.87608696 C15.9947826,5.87608696 16.2830435,6.13513473 16.2830435,6.45473913 L16.2830435,21.7345207 C16.2830435,22.0534522 15.9947826,22.3125 15.6473913,22.3125 L7.08086957,22.3125 Z" id="Fill-552" fill="#00A7CF"></path>
                            <path d="M8.81782609,8.68847826 C8.64043478,8.68847826 8.5,8.54656522 8.5,8.37065217 C8.5,8.19473913 8.64043478,8.05356522 8.81782609,8.05356522 L9.96347826,8.05356522 C10.1408696,8.05356522 10.2813043,8.19473913 10.2813043,8.37065217 C10.2813043,8.54656522 10.1408696,8.68847826 9.96347826,8.68847826 L8.81782609,8.68847826 Z" id="Fill-553" fill="#2886AE"></path>
                            <path d="M9.96347826,12.1084348 L8.81782609,12.1084348 C8.64043478,12.1084348 8.5,11.9665217 8.5,11.7906087 C8.5,11.6146957 8.64043478,11.4727826 8.81782609,11.4727826 L9.96347826,11.4727826 C10.1408696,11.4727826 10.2813043,11.6146957 10.2813043,11.7906087 C10.2813043,11.9665217 10.1408696,12.1084348 9.96347826,12.1084348" id="Fill-554" fill="#2886AE"></path>
                            <path d="M9.96347826,15.5283913 L8.81782609,15.5283913 C8.64043478,15.5283913 8.5,15.385 8.5,15.2105652 C8.5,15.0346522 8.64043478,14.8927391 8.81782609,14.8927391 L9.96347826,14.8927391 C10.1408696,14.8927391 10.2813043,15.0346522 10.2813043,15.2105652 C10.2813043,15.385 10.1408696,15.5283913 9.96347826,15.5283913" id="Fill-555" fill="#2886AE"></path>
                            <path d="M9.96347826,18.9483478 L8.81782609,18.9483478 C8.64043478,18.9483478 8.5,18.8049565 8.5,18.6305217 C8.5,18.4546087 8.64043478,18.3126957 8.81782609,18.3126957 L9.96347826,18.3126957 C10.1408696,18.3126957 10.2813043,18.4546087 10.2813043,18.6305217 C10.2813043,18.8049565 10.1408696,18.9483478 9.96347826,18.9483478" id="Fill-556" fill="#2886AE"></path>
                            <path d="M13.9104348,8.68847826 L12.7647826,8.68847826 C12.5873913,8.68847826 12.4469565,8.54656522 12.4469565,8.37065217 C12.4469565,8.19473913 12.5873913,8.05356522 12.7647826,8.05356522 L13.9104348,8.05356522 C14.0878261,8.05356522 14.2282609,8.19473913 14.2282609,8.37065217 C14.2282609,8.54656522 14.0878261,8.68847826 13.9104348,8.68847826" id="Fill-557" fill="#2886AE"></path>
                            <path d="M13.9104348,12.1084348 L12.7647826,12.1084348 C12.5873913,12.1084348 12.4469565,11.9665217 12.4469565,11.7906087 C12.4469565,11.6146957 12.5873913,11.4727826 12.7647826,11.4727826 L13.9104348,11.4727826 C14.0878261,11.4727826 14.2282609,11.6146957 14.2282609,11.7906087 C14.2282609,11.9665217 14.0878261,12.1084348 13.9104348,12.1084348" id="Fill-558" fill="#2886AE"></path>
                            <path d="M13.9104348,15.5283913 L12.7647826,15.5283913 C12.5873913,15.5283913 12.4469565,15.385 12.4469565,15.2105652 C12.4469565,15.0346522 12.5873913,14.8927391 12.7647826,14.8927391 L13.9104348,14.8927391 C14.0878261,14.8927391 14.2282609,15.0346522 14.2282609,15.2105652 C14.2282609,15.385 14.0878261,15.5283913 13.9104348,15.5283913" id="Fill-559" fill="#2886AE"></path>
                            <path d="M13.9104348,18.9483478 L12.7647826,18.9483478 C12.5873913,18.9483478 12.4469565,18.8049565 12.4469565,18.6305217 C12.4469565,18.4546087 12.5873913,18.3126957 12.7647826,18.3126957 L13.9104348,18.3126957 C14.0878261,18.3126957 14.2282609,18.4546087 14.2282609,18.6305217 C14.2282609,18.8049565 14.0878261,18.9483478 13.9104348,18.9483478" id="Fill-560" fill="#2886AE"></path>
                        </g>
                    </g>
                </g>
            </g>
        </g>
    </g>
</svg>