<?xml version="1.0" encoding="UTF-8"?>
<svg width="30px" height="30px" viewBox="0 0 30 30" version="1.1" xmlns="http://www.w3.org/2000/svg" xmlns:xlink="http://www.w3.org/1999/xlink">
    <!-- Generator: Sketch 46.2 (44496) - http://www.bohemiancoding.com/sketch -->
    <title>Scale Copy 2</title>
    <desc>Created with Sketch.</desc>
    <defs></defs>
    <g id="Nav-Design" stroke="none" stroke-width="1" fill="none" fill-rule="evenodd">
        <g id="Nav_Product_resting_NEW_USE-ME!" transform="translate(-337.000000, -392.000000)">
            <g id="Group-15" transform="translate(298.000000, 56.000000)">
                <g id="Group-13">
                    <g id="Group-9" transform="translate(39.000000, 336.000000)">
                        <g id="Scale-Copy-2">
                            <circle id="Oval" fill="#EEF9EA" cx="15" cy="15" r="15"></circle>
                            <g id="Group-5" transform="translate(15.125000, 14.625000) rotate(90.000000) translate(-15.125000, -14.625000) translate(6.125000, 6.125000)">
                                <path d="M2.1898125,2.59865302 C1.936125,2.59865302 1.7319375,2.39511045 1.7319375,2.14305226 L1.7319375,0.455043103 C1.7319375,0.203542565 1.936125,0 2.1898125,0 C2.4435,0 2.6488125,0.203542565 2.6488125,0.455043103 L2.6488125,2.14305226 C2.6488125,2.39511045 2.4435,2.59865302 2.1898125,2.59865302" id="Fill-130" fill="#8ED672"></path>
                                <path d="M2.1898125,16.6704149 C1.936125,16.6704149 1.7319375,16.4679876 1.7319375,16.2164871 L1.7319375,5.57762392 C1.7319375,5.32612338 1.936125,5.12202317 2.1898125,5.12202317 C2.4435,5.12202317 2.6488125,5.32612338 2.6488125,5.57762392 L2.6488125,16.2164871 C2.6488125,16.4679876 2.4435,16.6704149 2.1898125,16.6704149" id="Fill-131" fill="#57A439"></path>
                                <path d="M9,7.17975485 C8.7463125,7.17975485 8.541,6.97621228 8.541,6.72415409 L8.541,0.508577586 C8.541,0.257077047 8.7463125,0.0529768319 9,0.0529768319 C9.253125,0.0529768319 9.4584375,0.257077047 9.4584375,0.508577586 L9.4584375,6.72415409 C9.4584375,6.97621228 9.253125,7.17975485 9,7.17975485" id="Fill-132" fill="#8ED672"></path>
                                <path d="M9,16.7228341 C8.7463125,16.7228341 8.541,16.5204068 8.541,16.2689063 L8.541,10.1587258 C8.541,9.90666756 8.7463125,9.703125 9,9.703125 C9.253125,9.703125 9.4584375,9.90666756 9.4584375,10.1587258 L9.4584375,16.2689063 C9.4584375,16.5204068 9.253125,16.7228341 9,16.7228341" id="Fill-133" fill="#57A439"></path>
                                <path d="M15.809625,11.7608567 C15.5570625,11.7608567 15.3511875,11.5567565 15.3511875,11.3063712 L15.3511875,0.560996767 C15.3511875,0.308938578 15.5570625,0.105396013 15.809625,0.105396013 C16.0633125,0.105396013 16.268625,0.308938578 16.268625,0.560996767 L16.268625,11.3063712 C16.268625,11.5567565 16.0633125,11.7608567 15.809625,11.7608567" id="Fill-134" fill="#8ED672"></path>
                                <path d="M15.809625,16.7763685 C15.5570625,16.7763685 15.3511875,16.5733836 15.3511875,16.3218831 L15.3511875,14.7392699 C15.3511875,14.4877694 15.5570625,14.2853421 15.809625,14.2853421 C16.0633125,14.2853421 16.268625,14.4877694 16.268625,14.7392699 L16.268625,16.3218831 C16.268625,16.5733836 16.0633125,16.7763685 15.809625,16.7763685" id="Fill-135" fill="#57A439"></path>
                                <path d="M2.1898125,2.59865302 C1.4878125,2.59865302 0.9174375,3.16411099 0.9174375,3.86005927 C0.9174375,4.55600754 1.4878125,5.12202317 2.1898125,5.12202317 C2.8918125,5.12202317 3.4633125,4.55600754 3.4633125,3.86005927 C3.4633125,3.16411099 2.8918125,2.59865302 2.1898125,2.59865302 Z M2.1898125,6.03043642 C0.982125,6.03043642 0,5.05677802 0,3.86005927 C0,2.66278287 0.982125,1.68912446 2.1898125,1.68912446 C3.3969375,1.68912446 4.3801875,2.66278287 4.3801875,3.86005927 C4.3801875,5.05677802 3.3969375,6.03043642 2.1898125,6.03043642 L2.1898125,6.03043642 Z" id="Fill-136" fill="#8ED672"></path>
                                <path d="M9,7.17975485 C8.298,7.17975485 7.7270625,7.74577047 7.7270625,8.44171875 C7.7270625,9.13766703 8.298,9.703125 9,9.703125 C9.702,9.703125 10.2735,9.13766703 10.2735,8.44171875 C10.2735,7.74577047 9.702,7.17975485 9,7.17975485 Z M9,10.6126536 C7.792875,10.6126536 6.809625,9.63899515 6.809625,8.44171875 C6.809625,7.245 7.792875,6.27134159 9,6.27134159 C10.2076875,6.27134159 11.1898125,7.245 11.1898125,8.44171875 C11.1898125,9.63899515 10.2076875,10.6126536 9,10.6126536 L9,10.6126536 Z" id="Fill-137" fill="#8ED672"></path>
                                <path d="M15.81075,11.7608567 C15.10875,11.7608567 14.53725,12.3268723 14.53725,13.0228206 C14.53725,13.7187689 15.10875,14.2853421 15.81075,14.2853421 C16.51275,14.2853421 17.083125,13.7187689 17.083125,13.0228206 C17.083125,12.3268723 16.51275,11.7608567 15.81075,11.7608567 Z M15.81075,15.1948707 C14.6030625,15.1948707 13.6198125,14.220097 13.6198125,13.0228206 C13.6198125,11.8261018 14.6030625,10.8513281 15.81075,10.8513281 C17.017875,10.8513281 18,11.8261018 18,13.0228206 C18,14.220097 17.017875,15.1948707 15.81075,15.1948707 L15.81075,15.1948707 Z" id="Fill-138" fill="#8ED672"></path>
                            </g>
                        </g>
                    </g>
                </g>
            </g>
        </g>
    </g>
</svg>